<?xml version="1.0" encoding="UTF-8" standalone="no"?>
<svg
   xmlns:dc="http://purl.org/dc/elements/1.1/"
   xmlns:cc="http://creativecommons.org/ns#"
   xmlns:rdf="http://www.w3.org/1999/02/22-rdf-syntax-ns#"
   xmlns:svg="http://www.w3.org/2000/svg"
   xmlns="http://www.w3.org/2000/svg"
   version="1.1"
   id="svg44023"
   viewBox="0 0 460.96773 720.57136"
   height="203.36125mm"
   width="130.09534mm">
  <defs
     id="defs44025" />
  <metadata
     id="metadata44028">
    <rdf:RDF>
      <cc:Work
         rdf:about="">
        <dc:format>image/svg+xml</dc:format>
        <dc:type
           rdf:resource="http://purl.org/dc/dcmitype/StillImage" />
        <dc:title></dc:title>
      </cc:Work>
    </rdf:RDF>
  </metadata>
  <g
     transform="translate(-30.960838,-34.933638)"
     id="layer1">
    <g
       id="g44582"
       transform="matrix(15.365591,0,0,13.857142,15.595247,34.933638)">
      <g
         id="g44776">
        <path
           style="fill:#000000;fill-opacity:1"
           d="M 5.875,0.375 6,0 6.5,0 7,0 7.5,0 8,0 8.5,0 9,0 9,0.5 Q 9,1 9,1.5 9,2 9,2.5 9,3 9,3.5 9,4 9.125,4.375 9.25,4.75 9.625,4.875 10,5 10.375,4.875 10.75,4.75 11,4.5 11.25,4.25 11.625,4.125 12,4 12.5,4 13,4 13.375,3.875 13.75,3.75 14,3.5 14.25,3.25 14.625,3.125 15,3 15.5,3 16,3 16.5,3 17,3 17.375,3.125 17.75,3.25 18,3.5 18.25,3.75 18.625,3.875 19,4 19.5,4 20,4 20.375,4.125 20.75,4.25 21,4.5 21.25,4.75 21.625,4.875 22,5 22.375,4.875 22.75,4.75 22.875,4.375 23,4 23,3.5 23,3 23,2.5 23,2 23,1.5 23,1 23,0.5 L 23,0 23.5,0 24,0 24.5,0 25,0 25.5,0 26,0 26.125,0.375 Q 26.25,0.75 26.5,1 26.75,1.25 27,1.5 27.25,1.75 27.5,2 27.75,2.25 27.875,2.625 28,3 28.125,3.375 28.25,3.75 28.5,4 28.75,4.25 28.875,4.625 29,5 29,5.5 29,6 29,6.5 29,7 28.875,7.375 28.75,7.75 28.5,8 28.25,8.25 28.125,8.625 28,9 27.875,9.375 27.75,9.75 27.5,10 27.25,10.25 27.125,10.625 27,11 27,11.5 27,12 27.125,12.375 27.25,12.75 27.5,13 27.75,13.25 27.875,13.625 28,14 28,14.5 q 0,0.5 0.125,0.875 0.125,0.375 0.5,0.5 Q 29,16 29.5,16 q 0.5,0 1,0 l 0.5,0 0,0.5 0,0.5 0,0.5 0,0.5 -0.375,0.125 Q 30.25,18.25 30,18.5 q -0.25,0.25 -0.5,0.5 -0.25,0.25 -0.5,0.5 -0.25,0.25 -0.5,0.5 -0.25,0.25 -0.5,0.5 -0.25,0.25 -0.5,0.5 -0.25,0.25 -0.5,0.5 -0.25,0.25 -0.5,0.5 -0.25,0.25 -0.25,0.5 0,0.25 0.25,0.5 0.25,0.25 0.5,0.5 0.25,0.25 0.5,0.5 0.25,0.25 0.5,0.5 0.25,0.25 0.5,0.5 0.25,0.25 0.375,0.625 Q 29,26 29,26.5 29,27 29.125,27.375 29.25,27.75 29.5,28 q 0.25,0.25 0.375,0.625 0.125,0.375 0.25,0.75 0.125,0.375 0.5,0.5 L 31,30 l 0,0.5 0,0.5 0,0.5 0,0.5 0,0.5 0,0.5 -0.375,0.125 q -0.375,0.125 -0.5,0.5 -0.125,0.375 0,0.75 0.125,0.375 0.5,0.5 L 31,35 l 0,0.5 0,0.5 0,0.5 0,0.5 0,0.5 0,0.5 0,0.5 0,0.5 -0.375,0.125 q -0.375,0.125 -0.5,0.5 Q 30,40 29.875,40.375 29.75,40.75 29.5,41 29.25,41.25 29,41.5 28.75,41.75 28.375,41.875 28,42 27.5,42 27,42 26.625,41.875 26.25,41.75 26,41.5 q -0.25,-0.25 -0.5,-0.25 -0.25,0 -0.375,0.375 Q 25,42 25,42.5 q 0,0.5 0,1 0,0.5 0,1 0,0.5 0.125,0.875 Q 25.25,45.75 25.5,46 25.75,46.25 25.875,46.625 26,47 26.125,47.375 26.25,47.75 26.5,48 q 0.25,0.25 0.5,0.5 0.25,0.25 0.5,0.5 0.25,0.25 0.375,0.625 Q 28,50 28,50.5 q 0,0.5 0,1 l 0,0.5 -0.5,0 -0.5,0 -0.5,0 -0.5,0 -0.5,0 -0.5,0 -0.5,0 -0.5,0 -0.5,0 -0.5,0 -0.5,0 -0.5,0 -0.5,0 -0.5,0 -0.5,0 -0.5,0 -0.5,0 -0.5,0 -0.5,0 -0.5,0 -0.5,0 -0.5,0 0,-0.5 q 0,-0.5 0,-1 0,-0.5 0,-1 0,-0.5 0,-1 0,-0.5 0,-1 0,-0.5 0,-1 0,-0.5 0,-1 0,-0.5 0,-1 0,-0.5 -0.125,-0.875 -0.125,-0.375 -0.5,-0.5 -0.375,-0.125 -0.75,0 -0.375,0.125 -0.5,0.5 Q 15,44 15,44.5 q 0,0.5 0,1 0,0.5 0,1 0,0.5 0,1 0,0.5 0,1 0,0.5 0,1 0,0.5 0,1 0,0.5 0,1 L 15,52 14.5,52 14,52 13.5,52 13,52 12.5,52 12,52 11.5,52 11,52 10.5,52 10,52 9.5,52 9,52 8.5,52 8,52 7.5,52 7,52 6.5,52 6,52 5.5,52 5,52 4.5,52 4,52 4,51.5 Q 4,51 4,50.5 4,50 4.125,49.625 4.25,49.25 4.5,49 4.75,48.75 5,48.5 5.25,48.25 5.5,48 5.75,47.75 5.875,47.375 6,47 6.125,46.625 6.25,46.25 6.5,46 6.75,45.75 6.875,45.375 7,45 7,44.5 7,44 7,43.5 7,43 7,42.5 7,42 6.875,41.625 6.75,41.25 6.5,41.25 6.25,41.25 6,41.5 5.75,41.75 5.375,41.875 5,42 4.5,42 4,42 3.625,41.875 3.25,41.75 3,41.5 2.75,41.25 2.5,41 2.25,40.75 2.125,40.375 2,40 1.875,39.625 1.75,39.25 1.375,39.125 L 1,39 1,38.5 Q 1,38 1,37.5 1,37 1,36.5 1,36 1,35.5 L 1,35 1.375,34.875 Q 1.75,34.75 1.875,34.375 2,34 1.875,33.625 1.75,33.25 1.375,33.125 L 1,33 1,32.5 Q 1,32 1,31.5 1,31 1,30.5 L 1,30 1.375,29.875 Q 1.75,29.75 1.875,29.375 2,29 2.125,28.625 2.25,28.25 2.5,28 2.75,27.75 2.875,27.375 3,27 3,26.5 3,26 3.125,25.625 3.25,25.25 3.5,25 3.75,24.75 4,24.5 4.25,24.25 4.5,24 4.75,23.75 5,23.5 5.25,23.25 5.5,23 5.75,22.75 5.75,22.5 5.75,22.25 5.5,22 5.25,21.75 5,21.5 4.75,21.25 4.5,21 4.25,20.75 4,20.5 3.75,20.25 3.5,20 3.25,19.75 3,19.5 2.75,19.25 2.5,19 2.25,18.75 2,18.5 1.75,18.25 1.375,18.125 L 1,18 1,17.5 Q 1,17 1,16.5 L 1,16 1.5,16 q 0.5,0 1,0 0.5,0 0.875,-0.125 0.375,-0.125 0.5,-0.5 Q 4,15 4,14.5 4,14 4.125,13.625 4.25,13.25 4.5,13 4.75,12.75 4.875,12.375 5,12 5,11.5 5,11 4.875,10.625 4.75,10.25 4.5,10 4.25,9.75 4.125,9.375 4,9 3.875,8.625 3.75,8.25 3.5,8 3.25,7.75 3.125,7.375 3,7 3,6.5 3,6 3,5.5 3,5 3.125,4.625 3.25,4.25 3.5,4 3.75,3.75 3.875,3.375 4,3 4.125,2.625 4.25,2.25 4.5,2 4.75,1.75 5,1.5 5.25,1.25 5.5,1 5.75,0.75 5.875,0.375 M 1,15.875 1,16 1,16.375 1,16.75 1,16.5 Q 1,16.25 1,16 l 0,-0.25 0,0.125 M 1,17.625 1,18 1,18.125 1,18.25 1,18 q 0,-0.25 0,-0.5 l 0,-0.25 0,0.375 M 1,29.875 1,30 1,30.375 1,30.75 1,30.5 Q 1,30.25 1,30 l 0,-0.25 0,0.125 M 1,32.625 1,33 1,33.125 1,33.25 1,33 q 0,-0.25 0,-0.5 l 0,-0.25 0,0.375 M 1,34.875 1,35 1,35.375 1,35.75 1,35.5 Q 1,35.25 1,35 l 0,-0.25 0,0.125 M 1,38.625 1,39 1,39.125 1,39.25 1,39 q 0,-0.25 0,-0.5 l 0,-0.25 0,0.375 M 11.5,50 q 0.5,0 0.875,-0.125 0.375,-0.125 0.5,-0.5 Q 13,49 12.875,48.625 12.75,48.25 12.5,48 12.25,47.75 12,47.5 11.75,47.25 11.359375,47.140625 L 10.96875,47.03125 10.984375,47.140625 11,47.25 10.96875,47.03125 Q 10.9375,46.8125 10.875,46.625 L 10.8125,46.4375 10.90625,46.71875 11,47 10.875,46.625 Q 10.75,46.25 10.375,46.125 10,46 9.5,46 9,46 8.625,46.125 8.25,46.25 8.125,46.625 8,47 7.875,47.375 7.75,47.75 7.5,48 7.25,48.25 7.125,48.625 L 7,49 7.09375,48.71875 7.1875,48.4375 7.125,48.625 Q 7.0625,48.8125 7.03125,49.03125 L 7,49.25 7.015625,49.140625 7.03125,49.03125 6.640625,49.140625 Q 6.25,49.25 6.25,49.5 q 0,0.25 0.375,0.375 Q 7,50 7.5,50 8,50 8.375,49.875 8.75,49.75 8.875,49.375 9,49 9.125,48.625 9.25,48.25 9.5,48.25 q 0.25,0 0.375,0.375 0.125,0.375 0.25,0.75 0.125,0.375 0.5,0.5 Q 11,50 11.5,50 m 7.625,-3.625 q 0.125,0.375 0.375,0.375 0.25,0 0.375,-0.375 L 20,46 19.90625,46.28125 19.8125,46.5625 19.875,46.375 q 0.0625,-0.1875 0.09375,-0.40625 L 20,45.75 19.98437,45.859375 19.96874,45.96875 20.359365,45.859375 Q 20.75,45.75 21,45.5 21.25,45.25 21.625,45.125 22,45 22.375,44.875 22.75,44.75 22.875,44.375 23,44 23,43.5 23,43 22.875,42.625 22.75,42.25 22.5,42 22.25,41.75 22.125,41.375 22,41 22,40.5 q 0,-0.5 0,-1 0,-0.5 0,-1 0,-0.5 0,-1 0,-0.5 0,-1 0,-0.5 0,-1 0,-0.5 0,-1 Q 22,34 22.125,33.625 22.25,33.25 22.5,33 22.75,32.75 22.875,32.375 23,32 23.125,31.625 23.25,31.25 23.5,31 q 0.25,-0.25 0.25,-0.5 0,-0.25 -0.25,-0.5 -0.25,-0.25 -0.25,-0.5 0,-0.25 0.375,-0.375 Q 24,29 24.5,29 25,29 25.375,28.875 25.75,28.75 26,28.5 q 0.25,-0.25 0.5,-0.25 0.25,0 0.390625,0.390625 L 27.03125,29.03125 27.140625,29.015625 27.25,29 27.03125,29.03125 Q 26.8125,29.0625 26.625,29.125 L 26.4375,29.1875 26.71875,29.09375 27,29 26.625,29.125 Q 26.25,29.25 26,29.5 25.75,29.75 25.5,30 25.25,30.25 25.125,30.625 25,31 25,31.5 25,32 25.125,32.375 25.25,32.75 25.5,33 q 0.25,0.25 0.25,0.5 0,0.25 -0.25,0.5 -0.25,0.25 -0.5,0.5 -0.25,0.25 -0.5,0.5 -0.25,0.25 -0.375,0.625 Q 24,36 24.046875,36.546875 l 0.04687,0.546875 0.04687,-0.07813 0.04687,-0.07813 -0.09375,0.15625 Q 24,37.25 24,37.5 l 0,0.25 0,-0.375 0,-0.375 0,0.5 q 0,0.5 0,1 0,0.5 0.125,0.875 0.125,0.375 0.375,0.375 0.25,0 0.5,-0.25 0.25,-0.25 0.5,-0.5 0.25,-0.25 0.375,-0.625 Q 26,38 26.125,37.625 26.25,37.25 26.5,37.25 q 0.25,0 0.375,0.375 Q 27,38 27,38.5 q 0,0.5 0.125,0.875 0.125,0.375 0.375,0.375 0.25,0 0.5,-0.25 0.25,-0.25 0.5,-0.5 0.25,-0.25 0.375,-0.625 Q 29,38 29,37.5 q 0,-0.5 0,-1 0,-0.5 -0.125,-0.875 -0.125,-0.375 -0.5,-0.5 L 28,35 28,34.5 q 0,-0.5 0,-1 l 0,-0.5 0,0.375 0,0.375 0,-0.25 q 0,-0.25 0.03125,-0.46875 l 0.03125,-0.21875 -0.01563,0.109375 -0.01563,0.109375 0.359375,-0.140625 Q 28.75,32.75 28.875,32.375 29,32 29,31.5 29,31 28.875,30.625 28.75,30.25 28.5,30 28.25,29.75 28.125,29.375 28,29 27.875,28.625 27.75,28.25 27.5,28 27.25,27.75 27.125,27.375 27,27 27,26.5 27,26 26.875,25.625 26.75,25.25 26.5,25 26.25,24.75 26,24.5 25.75,24.25 25.375,24.125 25,24 24.5,24 24,24 23.625,24.125 23.25,24.25 23,24.5 22.75,24.75 22.375,24.875 22,25 21.625,25.125 21.25,25.25 21.25,25.5 q 0,0.25 0.375,0.375 Q 22,26 22.515625,26.015625 l 0.515625,0.01563 0.01563,-0.109375 0.01563,-0.109375 -0.03125,0.21875 Q 23,26.25 23,26.5 l 0,0.25 0,-0.375 0,-0.375 -0.01563,0.515625 -0.01563,0.515625 0.109375,0.01563 0.109375,0.01563 -0.21875,-0.03125 Q 22.75,27 22.5,27 l -0.25,0 0.375,0 0.375,0 -0.5,0 q -0.5,0 -1,0 L 21,27 20.875,26.625 Q 20.75,26.25 20.375,26.125 20,26 19.5,26 19,26 18.625,26.125 18.25,26.25 18,26.5 17.75,26.75 17.375,26.875 17,27 16.5,27 16,27 15.5,27 15,27 14.625,26.875 14.25,26.75 14,26.5 13.75,26.25 13.375,26.125 13,26 12.5,26 q -0.5,0 -0.875,0.125 -0.375,0.125 -0.5,0.5 L 11,27 10.5,27 q -0.5,0 -1,0 L 9,27 9.375,27 9.75,27 9.5,27 Q 9.25,27 9.03125,27.03125 L 8.8125,27.0625 8.921875,27.046875 9.03125,27.03125 9.015625,26.515625 9,26 9,26.375 9,26.75 9,26.5 Q 9,26.25 8.96875,26.03125 L 8.9375,25.8125 8.953125,25.921875 8.96875,26.03125 9.484375,26.015625 Q 10,26 10.375,25.875 10.75,25.75 10.75,25.5 10.75,25.25 10.375,25.125 10,25 9.625,24.875 9.25,24.75 9,24.5 8.75,24.25 8.375,24.125 8,24 7.5,24 7,24 6.625,24.125 6.25,24.25 6,24.5 5.75,24.75 5.5,25 5.25,25.25 5.125,25.625 5,26 5,26.5 5,27 4.875,27.375 4.75,27.75 4.5,28 4.25,28.25 4.125,28.625 4,29 3.875,29.375 3.75,29.75 3.5,30 3.25,30.25 3.125,30.625 3,31 3,31.5 3,32 3.125,32.375 3.25,32.75 3.609375,32.890625 L 3.96875,33.03125 3.953125,32.921875 3.9375,32.8125 3.96875,33.03125 Q 4,33.25 4,33.5 L 4,33.75 4,33.375 4,33 4,33.5 q 0,0.5 0,1 L 4,35 3.625,35.125 Q 3.25,35.25 3.125,35.625 3,36 3,36.5 3,37 3,37.5 3,38 3.125,38.375 3.25,38.75 3.5,39 q 0.25,0.25 0.5,0.5 0.25,0.25 0.5,0.25 0.25,0 0.375,-0.375 Q 5,39 5,38.5 5,38 5.125,37.625 5.25,37.25 5.5,37.25 q 0.25,0 0.375,0.375 Q 6,38 6.125,38.375 6.25,38.75 6.5,39 q 0.25,0.25 0.5,0.5 0.25,0.25 0.5,0.25 0.25,0 0.375,-0.375 Q 8,39 8,38.5 8,38 8,37.5 L 8,37 8,37.375 8,37.75 8,37.5 Q 8,37.25 7.90625,37.09375 L 7.8125,36.9375 7.859375,37.015625 7.90625,37.09375 7.953125,36.546875 Q 8,36 7.875,35.625 7.75,35.25 7.5,35 7.25,34.75 7,34.5 6.75,34.25 6.5,34 6.25,33.75 6.25,33.5 6.25,33.25 6.5,33 6.75,32.75 6.875,32.375 7,32 7,31.5 7,31 6.875,30.625 6.75,30.25 6.5,30 6.25,29.75 6,29.5 5.75,29.25 5.375,29.125 L 5,29 5.28125,29.09375 5.5625,29.1875 5.375,29.125 Q 5.1875,29.0625 4.96875,29.03125 L 4.75,29 4.859375,29.015625 4.96875,29.03125 5.109375,28.640625 Q 5.25,28.25 5.5,28.25 5.75,28.25 6,28.5 6.25,28.75 6.625,28.875 7,29 7.5,29 8,29 8.375,29.125 8.75,29.25 8.75,29.5 q 0,0.25 -0.25,0.5 -0.25,0.25 -0.25,0.5 0,0.25 0.25,0.5 0.25,0.25 0.375,0.625 Q 9,32 9.125,32.375 9.25,32.75 9.5,33 9.75,33.25 9.875,33.625 10,34 10,34.5 q 0,0.5 0,1 0,0.5 0,1 0,0.5 0,1 0,0.5 0,1 0,0.5 0,1 0,0.5 0,1 Q 10,41 9.875,41.375 9.75,41.75 9.5,42 9.25,42.25 9.125,42.625 9,43 9,43.5 9,44 9.125,44.375 9.25,44.75 9.625,44.875 10,45 10.375,45.125 10.75,45.25 11,45.5 q 0.25,0.25 0.640625,0.359375 L 12.03125,45.96875 12.015625,45.859375 12,45.75 12.03125,45.96875 Q 12.0625,46.1875 12.125,46.375 L 12.1875,46.5625 12.09375,46.28125 12,46 l 0.125,0.375 q 0.125,0.375 0.375,0.375 0.25,0 0.375,-0.375 Q 13,46 13,45.5 13,45 13,44.5 13,44 13.125,43.625 13.25,43.25 13.5,43 13.75,42.75 13.875,42.375 14,42 14,41.5 14,41 14.125,40.625 14.25,40.25 14.625,40.125 15,40 15.5,40 q 0.5,0 1,0 0.5,0 0.875,0.125 0.375,0.125 0.5,0.5 Q 18,41 18,41.5 18,42 18.125,42.375 18.25,42.75 18.5,43 18.75,43.25 18.875,43.625 19,44 19,44.5 q 0,0.5 0,1 0,0.5 0.125,0.875 M 28,34.625 28,35 28,35.125 28,35.25 28,35 q 0,-0.25 0,-0.5 l 0,-0.25 0,0.375 M 20.875,27 21,27 l 0.375,0 0.375,0 -0.25,0 q -0.25,0 -0.5,0 l -0.25,0 0.125,0 M 16.5,26 Q 17,26 17.375,25.875 17.75,25.75 18,25.5 18.25,25.25 18.625,25.125 19,25 19.5,25 20,25 20.375,24.875 20.75,24.75 21,24.5 21.25,24.25 21.625,24.125 22,24 22.375,23.875 22.75,23.75 23,23.5 23.25,23.25 23.5,23 23.75,22.75 24,22.5 24.25,22.25 24.5,22 24.75,21.75 24.875,21.375 25,21 25.125,20.625 25.25,20.25 25.5,20 25.75,19.75 25.890625,19.359375 L 26.03125,18.96875 25.921875,18.953125 25.8125,18.9375 26.03125,18.96875 Q 26.25,19 26.5,19 l 0.25,0 -0.375,0 -0.375,0 0.5,0 q 0.5,0 0.875,-0.125 0.375,-0.125 0.5,-0.5 0.125,-0.375 0,-0.75 -0.125,-0.375 -0.5,-0.5 Q 27,17 26.625,17.125 26.25,17.25 26,17.5 25.75,17.75 25.40625,17.875 L 25.0625,18 l 0,0.09375 0,0.09375 0,-0.1875 q 0,-0.1875 0.0625,-0.375 L 25.1875,17.4375 25.09375,17.71875 25,18 25.125,17.625 Q 25.25,17.25 25.5,17 25.75,16.75 25.875,16.375 26,16 26,15.5 26,15 26,14.5 26,14 25.875,13.625 25.75,13.25 25.5,13 25.25,12.75 25,12.5 24.75,12.25 24.375,12.125 24,12 23.5,12 23,12 22.625,11.875 22.25,11.75 22,11.5 21.75,11.25 21.359375,11.109375 L 20.96875,10.96875 20.953125,11.078125 20.9375,11.1875 20.96875,10.96875 Q 21,10.75 21,10.5 l 0,-0.25 0,0.375 0,0.375 0,-0.5 q 0,-0.5 0,-1 0,-0.5 0,-1 L 21,8 21,8.375 21,8.75 21,8.5 Q 21,8.25 20.96875,8.03125 L 20.9375,7.8125 20.953125,7.921875 20.96875,8.03125 21.359375,7.890625 Q 21.75,7.75 21.75,7.5 21.75,7.25 21.5,7 21.25,6.75 21,6.5 20.75,6.25 20.375,6.125 20,6 19.5,6 19,6 18.5,6 L 18,6 17.875,5.625 Q 17.75,5.25 17.375,5.125 17,5 16.5,5 16,5 15.5,5 15,5 14.625,5.125 14.25,5.25 14.125,5.625 L 14,6 13.5,6 Q 13,6 12.5,6 12,6 11.625,6.125 11.25,6.25 11,6.5 10.75,6.75 10.5,7 q -0.25,0.25 -0.25,0.5 0,0.25 0.390625,0.390625 L 11.03125,8.03125 11.046875,7.921875 11.0625,7.8125 11.03125,8.03125 Q 11,8.25 11,8.5 L 11,8.75 11,8.375 11,8 11,8.5 q 0,0.5 0,1 0,0.5 0,1 l 0,0.5 0,-0.375 0,-0.375 0,0.25 q 0,0.25 0.03125,0.46875 L 11.0625,11.1875 11.04687,11.078125 11.03124,10.96875 10.640615,11.109375 Q 10.25,11.25 10,11.5 9.75,11.75 9.375,11.875 9,12 8.5,12 8,12 7.625,12.125 7.25,12.25 7,12.5 6.75,12.75 6.5,13 6.25,13.25 6.125,13.625 6,14 6,14.5 6,15 6,15.5 6,16 6.125,16.375 6.25,16.75 6.5,17 6.75,17.25 6.875,17.625 L 7,18 6.90625,17.71875 6.8125,17.4375 6.875,17.625 Q 6.9375,17.8125 6.9375,18 l 0,0.1875 0,-0.09375 L 6.9375,18 6.59375,17.875 Q 6.25,17.75 6,17.5 5.75,17.25 5.375,17.125 5,17 4.625,17.125 4.25,17.25 4.125,17.625 4,18 4.125,18.375 4.25,18.75 4.625,18.875 5,19 5.5,19 L 6,19 5.625,19 5.25,19 5.5,19 q 0.25,0 0.46875,-0.03125 L 6.1875,18.9375 6.078125,18.953125 5.96875,18.96875 6.109375,19.359375 Q 6.25,19.75 6.5,20 6.75,20.25 6.875,20.625 7,21 7.125,21.375 7.25,21.75 7.5,22 7.75,22.25 8,22.5 8.25,22.75 8.5,23 8.75,23.25 9,23.5 9.25,23.75 9.625,23.875 10,24 10.375,24.125 10.75,24.25 11,24.5 11.25,24.75 11.625,24.875 12,25 12.5,25 13,25 13.375,25.125 13.75,25.25 14,25.5 14.25,25.75 14.625,25.875 15,26 15.5,26 q 0.5,0 1,0 m 7,-15 Q 24,11 24.375,10.875 24.75,10.75 25,10.5 25.25,10.25 25.5,10 25.75,9.75 25.875,9.375 26,9 26.125,8.625 26.25,8.25 26.5,8 26.75,7.75 26.875,7.375 27,7 27,6.5 27,6 27,5.5 27,5 26.875,4.625 26.75,4.25 26.375,4.125 L 26,4 26,3.5 Q 26,3 25.875,2.625 25.75,2.25 25.5,2.25 25.25,2.25 25.125,2.625 25,3 25,3.5 25,4 25,4.5 L 25,5 25,4.625 25,4.25 25,4.5 q 0,0.25 -0.03125,0.46875 L 24.9375,5.1875 24.953125,5.078125 24.96875,4.96875 24.609375,5.109375 Q 24.25,5.25 24.125,5.625 24,6 24,6.5 L 24,7 24,6.625 24,6.25 24,6.5 q 0,0.25 -0.03125,0.46875 L 23.9375,7.1875 23.953125,7.078125 23.96875,6.96875 23.609375,7.109375 Q 23.25,7.25 23.125,7.625 L 23,8 22.625,8.125 Q 22.25,8.25 22.125,8.625 22,9 22,9.5 q 0,0.5 0.125,0.875 0.125,0.375 0.5,0.5 Q 23,11 23.5,11 M 26,3.625 26,4 26,4.125 26,4.25 26,4 q 0,-0.25 0,-0.5 l 0,-0.25 0,0.375 M 22.71875,8.09375 23,8 23.09375,7.96875 23.1875,7.9375 23,8 Q 22.8125,8.0625 22.625,8.125 L 22.4375,8.1875 22.71875,8.09375 M 17.875,6 18,6 18.375,6 18.75,6 18.5,6 Q 18.25,6 18,6 l -0.25,0 0.125,0 M 13.625,6 14,6 14.125,6 14.25,6 14,6 q -0.25,0 -0.5,0 l -0.25,0 0.375,0 M 8.5,11 Q 9,11 9.375,10.875 9.75,10.75 9.875,10.375 10,10 10,9.5 10,9 9.875,8.625 9.75,8.25 9.375,8.125 L 9,8 8.875,7.625 Q 8.75,7.25 8.390625,7.109375 L 8.03125,6.96875 8.046875,7.078125 8.0625,7.1875 8.03125,6.96875 Q 8,6.75 8,6.5 L 8,6.25 8,6.625 8,7 8,6.5 Q 8,6 7.875,5.625 7.75,5.25 7.390625,5.109375 L 7.03125,4.96875 7.046875,5.078125 7.0625,5.1875 7.03125,4.96875 Q 7,4.75 7,4.5 L 7,4.25 7,4.625 7,5 7,4.5 Q 7,4 7,3.5 7,3 6.875,2.625 6.75,2.25 6.5,2.25 6.25,2.25 6.125,2.625 6,3 6,3.5 L 6,4 5.625,4.125 Q 5.25,4.25 5.125,4.625 5,5 5,5.5 5,6 5,6.5 5,7 5.125,7.375 5.25,7.75 5.5,8 5.75,8.25 5.875,8.625 6,9 6.125,9.375 6.25,9.75 6.5,10 6.75,10.25 7,10.5 7.25,10.75 7.625,10.875 8,11 8.5,11 M 8.90625,7.96875 9,8 9.28125,8.09375 9.5625,8.1875 9.375,8.125 Q 9.1875,8.0625 9,8 L 8.8125,7.9375 8.90625,7.96875 M 6,4.125 6,4 6,3.625 6,3.25 6,3.5 Q 6,3.75 6,4 L 6,4.25 6,4.125 M 10.625,27 11,27 11.125,27 11.25,27 11,27 q -0.25,0 -0.5,0 l -0.25,0 0.375,0 M 4,35.125 4,35 4,34.625 4,34.25 4,34.5 q 0,0.25 0,0.5 l 0,0.25 0,-0.125 M 24.5,50 q 0.5,0 0.875,-0.125 0.375,-0.125 0.375,-0.375 0,-0.25 -0.390625,-0.359375 L 24.96875,49.03125 24.984375,49.140625 25,49.25 24.96875,49.03125 Q 24.9375,48.8125 24.875,48.625 L 24.8125,48.4375 24.90625,48.71875 25,49 24.875,48.625 Q 24.75,48.25 24.5,48 24.25,47.75 24.125,47.375 24,47 23.875,46.625 23.75,46.25 23.375,46.125 23,46 22.5,46 q -0.5,0 -0.875,0.125 -0.375,0.125 -0.5,0.5 L 21,47 21.09375,46.71875 21.1875,46.4375 21.125,46.625 q -0.0625,0.1875 -0.09375,0.40625 L 21,47.25 21.01563,47.140625 21.03126,47.03125 20.640635,47.140625 Q 20.25,47.25 20,47.5 q -0.25,0.25 -0.5,0.5 -0.25,0.25 -0.375,0.625 -0.125,0.375 0,0.75 0.125,0.375 0.5,0.5 Q 20,50 20.5,50 q 0.5,0 0.875,-0.125 0.375,-0.125 0.5,-0.5 Q 22,49 22.125,48.625 22.25,48.25 22.5,48.25 q 0.25,0 0.375,0.375 0.125,0.375 0.25,0.75 0.125,0.375 0.5,0.5 Q 24,50 24.5,50"
           id="path44588" />
        <path
           style="fill:#fd9409;fill-opacity:1"
           d="M 6.125,2.625 Q 6.25,2.25 6.5,2.25 6.75,2.25 6.875,2.625 7,3 7,3.5 7,4 7,4.5 7,5 7.125,5.375 7.25,5.75 7.609375,5.890625 L 7.96875,6.03125 7.953125,5.921875 7.9375,5.8125 7.96875,6.03125 Q 8,6.25 8,6.5 L 8,6.75 8,6.375 8,6 8,6.5 Q 8,7 8.125,7.375 8.25,7.75 8.625,7.875 9,8 9.375,8.125 9.75,8.25 9.875,8.625 10,9 10,9.5 L 10,10 10,9.625 10,9.25 10,9.5 Q 10,9.75 9.96875,9.96875 L 9.9375,10.1875 9.953125,10.078125 9.96875,9.96875 9.484375,9.984375 Q 9,10 8.625,9.875 8.25,9.75 8,9.5 7.75,9.25 7.5,9 7.25,8.75 7.125,8.375 7,8 6.875,7.625 6.75,7.25 6.5,7 6.25,6.75 6.125,6.375 6,6 6,5.5 6,5 6,4.5 6,4 6,3.5 6,3 6.125,2.625"
           id="path44594" />
        <path
           style="fill:#fd9409;fill-opacity:1"
           d="M 25.125,2.625 Q 25.25,2.25 25.5,2.25 q 0.25,0 0.375,0.375 Q 26,3 26,3.5 26,4 26,4.5 26,5 26,5.5 26,6 25.875,6.375 25.75,6.75 25.5,7 25.25,7.25 25.125,7.625 25,8 24.875,8.375 24.75,8.75 24.5,9 24.25,9.25 24,9.5 23.75,9.75 23.375,9.875 23,10 22.515625,9.984375 L 22.03125,9.96875 22.046875,10.078125 22.0625,10.1875 22.03125,9.96875 Q 22,9.75 22,9.5 L 22,9.25 22,9.625 22,10 22,9.5 Q 22,9 22.125,8.625 22.25,8.25 22.625,8.125 23,8 23.375,7.875 23.75,7.75 23.875,7.375 24,7 24,6.5 L 24,6 24,6.375 24,6.75 24,6.5 Q 24,6.25 24.03125,6.03125 L 24.0625,5.8125 24.046875,5.921875 24.03125,6.03125 24.390625,5.890625 Q 24.75,5.75 24.875,5.375 25,5 25,4.5 25,4 25,3.5 25,3 25.125,2.625"
           id="path44596" />
        <path
           style="fill:#9d5204;fill-opacity:1"
           d="M 5.125,4.625 Q 5.25,4.25 5.625,4.125 L 6,4 6,4.5 Q 6,5 6,5.5 6,6 6.125,6.375 6.25,6.75 6.5,7 6.75,7.25 6.875,7.625 7,8 7.125,8.375 7.25,8.75 7.5,9 7.75,9.25 8,9.5 8.25,9.75 8.625,9.875 9,10 9.484375,9.984375 L 9.96875,9.96875 9.984375,9.859375 10,9.75 9.96875,9.96875 Q 9.9375,10.1875 9.875,10.375 L 9.8125,10.5625 9.90625,10.28125 10,10 9.875,10.375 Q 9.75,10.75 9.375,10.875 9,11 8.5,11 8,11 7.625,10.875 7.25,10.75 7,10.5 6.75,10.25 6.5,10 6.25,9.75 6.125,9.375 6,9 5.875,8.625 5.75,8.25 5.5,8 5.25,7.75 5.125,7.375 5,7 5,6.5 5,6 5,5.5 5,5 5.125,4.625 M 6,4.375 6,4 6,3.875 6,3.75 6,4 Q 6,4.25 6,4.5 L 6,4.75 6,4.375"
           id="path44598" />
        <path
           style="fill:#9d5204;fill-opacity:1"
           d="M 26,4.5 26,4 26.375,4.125 q 0.375,0.125 0.5,0.5 Q 27,5 27,5.5 27,6 27,6.5 27,7 26.875,7.375 26.75,7.75 26.5,8 26.25,8.25 26.125,8.625 26,9 25.875,9.375 25.75,9.75 25.5,10 25.25,10.25 25,10.5 24.75,10.75 24.375,10.875 24,11 23.5,11 23,11 22.625,10.875 22.25,10.75 22.125,10.375 L 22,10 22.09375,10.28125 22.1875,10.5625 22.125,10.375 Q 22.0625,10.1875 22.03125,9.96875 L 22,9.75 22.01563,9.859375 22.03126,9.96875 22.515635,9.984375 Q 23,10 23.375,9.875 23.75,9.75 24,9.5 24.25,9.25 24.5,9 24.75,8.75 24.875,8.375 25,8 25.125,7.625 25.25,7.25 25.5,7 25.75,6.75 25.875,6.375 26,6 26,5.5 26,5 26,4.5 M 26,3.875 26,4 26,4.375 26,4.75 26,4.5 Q 26,4.25 26,4 l 0,-0.25 0,0.125"
           id="path44600" />
        <path
           style="fill:#9d5204;fill-opacity:1"
           d="M 7.125,5.375 7,5 7.09375,5.28125 7.1875,5.5625 7.125,5.375 Q 7.0625,5.1875 7.03125,4.96875 L 7,4.75 7.015625,4.859375 7.03125,4.96875 7.390625,5.109375 Q 7.75,5.25 7.875,5.625 L 8,6 7.90625,5.71875 7.8125,5.4375 7.875,5.625 Q 7.9375,5.8125 7.96875,6.03125 L 8,6.25 7.984375,6.140625 7.96875,6.03125 7.609375,5.890625 Q 7.25,5.75 7.125,5.375"
           id="path44602" />
        <path
           style="fill:#700002;fill-opacity:1"
           d="M 14.125,5.625 Q 14.25,5.25 14.625,5.125 15,5 15.5,5 q 0.5,0 1,0 0.5,0 0.875,0.125 0.375,0.125 0.5,0.5 L 18,6 17.5,6 Q 17,6 16.5,6 16,6 15.5,6 15,6 14.5,6 L 14,6 14.125,5.625 M 13.875,6 14,6 14.375,6 14.75,6 14.5,6 Q 14.25,6 14,6 l -0.25,0 0.125,0 M 17.625,6 18,6 18.125,6 18.25,6 18,6 q -0.25,0 -0.5,0 l -0.25,0 0.375,0"
           id="path44604" />
        <path
           style="fill:#9d5204;fill-opacity:1"
           d="M 24.125,5.625 Q 24.25,5.25 24.609375,5.109375 L 24.96875,4.96875 24.984375,4.859375 25,4.75 24.96875,4.96875 Q 24.9375,5.1875 24.875,5.375 L 24.8125,5.5625 24.90625,5.28125 25,5 24.875,5.375 Q 24.75,5.75 24.390625,5.890625 L 24.03125,6.03125 24.015625,6.140625 24,6.25 24.03125,6.03125 Q 24.0625,5.8125 24.125,5.625 L 24.1875,5.4375 24.09375,5.71875 24,6 24.125,5.625"
           id="path44606" />
        <path
           style="fill:#700002;fill-opacity:1"
           d="M 11,6.5 Q 11.25,6.25 11.625,6.125 L 12,6 11.71875,6.09375 11.4375,6.1875 11.625,6.125 Q 11.8125,6.0625 12.03125,6.03125 L 12.25,6 12.140625,6.015625 12.03125,6.03125 11.890625,6.390625 Q 11.75,6.75 11.5,7 11.25,7.25 11.125,7.625 L 11,8 11.09375,7.71875 11.1875,7.4375 11.125,7.625 Q 11.0625,7.8125 11.03125,8.03125 L 11,8.25 11.015625,8.140625 11.03125,8.03125 10.640625,7.890625 Q 10.25,7.75 10.25,7.5 10.25,7.25 10.5,7 10.75,6.75 11,6.5"
           id="path44608" />
        <path
           style="fill:#fb0007;fill-opacity:1"
           d="M 11.890625,6.390625 12.03125,6.03125 11.921875,6.046875 11.8125,6.0625 12.03125,6.03125 Q 12.25,6 12.5,6 L 12.75,6 12.375,6 12,6 12.5,6 q 0.5,0 1,0 0.5,0 1,0 0.5,0 1,0 0.5,0 1,0 0.5,0 1,0 0.5,0 1,0 0.5,0 1,0 L 20,6 19.625,6 19.25,6 19.5,6 q 0.25,0 0.46875,0.03125 L 20.1875,6.0625 20.078125,6.046875 19.96875,6.03125 20.109375,6.390625 Q 20.25,6.75 20.5,7 20.75,7.25 20.875,7.625 21,8 21,8.5 q 0,0.5 0,1 0,0.5 0,1 0,0.5 -0.125,0.875 -0.125,0.375 -0.5,0.5 Q 20,12 19.5,12 q -0.5,0 -1,0 -0.5,0 -1,0 -0.5,0 -1,0 -0.5,0 -1,0 -0.5,0 -1,0 -0.5,0 -1,0 -0.5,0 -1,0 -0.5,0 -0.875,-0.125 -0.375,-0.125 -0.5,-0.5 Q 11,11 11,10.5 11,10 11,9.5 11,9 11,8.5 11,8 11.125,7.625 11.25,7.25 11.5,7 11.75,6.75 11.890625,6.390625"
           id="path44610" />
        <path
           style="fill:#700002;fill-opacity:1"
           d="M 20.109375,6.390625 19.96875,6.03125 19.859375,6.015625 19.75,6 19.96875,6.03125 Q 20.1875,6.0625 20.375,6.125 L 20.5625,6.1875 20.28125,6.09375 20,6 20.375,6.125 Q 20.75,6.25 21,6.5 q 0.25,0.25 0.5,0.5 0.25,0.25 0.25,0.5 0,0.25 -0.390625,0.390625 L 20.96875,8.03125 20.984375,8.140625 21,8.25 20.96875,8.03125 Q 20.9375,7.8125 20.875,7.625 L 20.8125,7.4375 20.90625,7.71875 21,8 20.875,7.625 Q 20.75,7.25 20.5,7 20.25,6.75 20.109375,6.390625"
           id="path44612" />
        <path
           style="fill:#9d5204;fill-opacity:1"
           d="M 8.125,7.375 8,7 8.09375,7.28125 8.1875,7.5625 8.125,7.375 Q 8.0625,7.1875 8.03125,6.96875 L 8,6.75 8.015625,6.859375 8.03125,6.96875 8.390625,7.109375 Q 8.75,7.25 8.875,7.625 L 9,8 8.625,7.875 Q 8.25,7.75 8.125,7.375 M 8.71875,7.90625 9,8 9.09375,8.03125 9.1875,8.0625 9,8 Q 8.8125,7.9375 8.625,7.875 L 8.4375,7.8125 8.71875,7.90625"
           id="path44614" />
        <path
           style="fill:#9d5204;fill-opacity:1"
           d="M 23.125,7.625 Q 23.25,7.25 23.609375,7.109375 L 23.96875,6.96875 23.984375,6.859375 24,6.75 23.96875,6.96875 Q 23.9375,7.1875 23.875,7.375 L 23.8125,7.5625 23.90625,7.28125 24,7 23.875,7.375 q -0.125,0.375 -0.5,0.5 L 23,8 23.125,7.625 M 22.90625,8.03125 23,8 23.28125,7.90625 23.5625,7.8125 23.375,7.875 Q 23.1875,7.9375 23,8 l -0.1875,0.0625 0.09375,-0.03125"
           id="path44616" />
        <path
           style="fill:#700002;fill-opacity:1"
           d="m 10,11.5 q 0.25,-0.25 0.640625,-0.390625 L 11.03125,10.96875 11.015625,10.859375 11,10.75 11.03125,10.96875 Q 11.0625,11.1875 11.125,11.375 L 11.1875,11.5625 11.09375,11.28125 11,11 l 0.125,0.375 q 0.125,0.375 0.5,0.5 Q 12,12 12.5,12 l 0.5,0 0,0.5 0,0.5 -0.5,0 Q 12,13 11.625,12.875 11.25,12.75 11,12.5 10.75,12.25 10.5,12.25 10.25,12.25 10,12.5 9.75,12.75 9.5,13 9.25,13.25 9,13.5 8.75,13.75 8.375,13.875 8,14 7.625,14.125 7.25,14.25 7.125,14.625 7,15 7,15.5 7,16 7.125,16.375 7.25,16.75 7.5,16.75 7.75,16.75 7.875,16.375 8,16 7.984375,15.515625 L 7.96875,15.03125 7.859375,15.015625 7.75,15 7.96875,15.03125 Q 8.1875,15.0625 8.375,15.125 L 8.5625,15.1875 8.28125,15.09375 8,15 8.375,15.125 Q 8.75,15.25 9,15.5 9.25,15.75 9.625,15.875 10,16 10.5,16 q 0.5,0 1,0 0.5,0 1,0 0.5,0 0.875,-0.125 Q 13.75,15.75 14,15.5 14.25,15.25 14.625,15.125 15,15 15.5,15 q 0.5,0 1,0 0.5,0 0.875,0.125 Q 17.75,15.25 18,15.5 18.25,15.75 18.625,15.875 19,16 19.5,16 q 0.5,0 1,0 0.5,0 1,0 0.5,0 0.875,-0.125 Q 22.75,15.75 23,15.5 23.25,15.25 23.625,15.125 L 24,15 23.71875,15.09375 23.4375,15.1875 23.625,15.125 q 0.1875,-0.0625 0.40625,-0.09375 L 24.25,15 24.140625,15.01563 24.03125,15.03126 24.01562,15.515635 Q 24,16 24.125,16.375 24.25,16.75 24.5,16.75 q 0.25,0 0.375,-0.375 Q 25,16 25,15.5 25,15 24.875,14.625 24.75,14.25 24.375,14.125 24,14 23.625,13.875 23.25,13.75 23,13.5 22.75,13.25 22.5,13 22.25,12.75 22,12.5 21.75,12.25 21.5,12.25 21.25,12.25 21,12.5 20.75,12.75 20.375,12.875 20,13 19.5,13 l -0.5,0 0,-0.5 0,-0.5 0.5,0 q 0.5,0 0.875,-0.125 0.375,-0.125 0.5,-0.5 L 21,11 20.90625,11.28125 20.8125,11.5625 20.875,11.375 q 0.0625,-0.1875 0.09375,-0.40625 L 21,10.75 l -0.01563,0.109375 -0.01563,0.109375 0.390625,0.140625 Q 21.75,11.25 22,11.5 22.25,11.75 22.625,11.875 23,12 23.5,12 24,12 24.375,12.125 24.75,12.25 25,12.5 q 0.25,0.25 0.5,0.5 0.25,0.25 0.375,0.625 Q 26,14 26,14.5 q 0,0.5 0,1 0,0.5 -0.125,0.875 Q 25.75,16.75 25.5,17 q -0.25,0.25 -0.375,0.625 -0.125,0.375 0,0.75 0.125,0.375 0.5,0.5 L 26,19 25.71875,18.90625 25.4375,18.8125 25.625,18.875 q 0.1875,0.0625 0.40625,0.09375 L 26.25,19 26.140625,18.984375 26.03125,18.96875 25.890625,19.359375 Q 25.75,19.75 25.5,20 25.25,20.25 25.125,20.625 25,21 24.875,21.375 24.75,21.75 24.5,22 24.25,22.25 24,22.5 23.75,22.75 23.5,23 23.25,23.25 23,23.5 22.75,23.75 22.375,23.875 22,24 21.625,24.125 21.25,24.25 21,24.5 20.75,24.75 20.375,24.875 20,25 19.5,25 19,25 18.625,25.125 18.25,25.25 18,25.5 17.75,25.75 17.375,25.875 17,26 16.5,26 16,26 15.5,26 15,26 14.625,25.875 14.25,25.75 14,25.5 13.75,25.25 13.375,25.125 13,25 12.5,25 12,25 11.625,24.875 11.25,24.75 11,24.5 10.75,24.25 10.375,24.125 10,24 9.625,23.875 9.25,23.75 9,23.5 8.75,23.25 8.5,23 8.25,22.75 8,22.5 7.75,22.25 7.5,22 7.25,21.75 7.125,21.375 7,21 6.875,20.625 6.75,20.25 6.5,20 6.25,19.75 6.109375,19.359375 L 5.96875,18.96875 5.859375,18.984375 5.75,19 5.96875,18.96875 Q 6.1875,18.9375 6.375,18.875 L 6.5625,18.8125 6.28125,18.90625 6,19 6.375,18.875 Q 6.75,18.75 6.875,18.375 7,18 6.875,17.625 6.75,17.25 6.5,17 6.25,16.75 6.125,16.375 6,16 6,15.5 6,15 6,14.5 6,14 6.125,13.625 6.25,13.25 6.5,13 6.75,12.75 7,12.5 7.25,12.25 7.625,12.125 8,12 8.5,12 9,12 9.375,11.875 9.75,11.75 10,11.5 M 16.5,25 Q 17,25 17.375,24.875 17.75,24.75 18,24.5 18.25,24.25 18.625,24.125 19,24 19.375,23.875 19.75,23.75 19.875,23.34375 L 20,22.9375 l -0.09375,0 -0.09375,0 0.1875,0 q 0.1875,0 0.375,-0.0625 L 20.5625,22.8125 20.28125,22.90625 20,23 20.375,22.875 Q 20.75,22.75 21,22.5 21.25,22.25 21.625,22.125 22,22 22.375,21.875 22.75,21.75 23,21.5 23.25,21.25 23.5,21 23.75,20.75 23.875,20.375 L 24,20 23.90625,20.28125 23.8125,20.5625 23.875,20.375 q 0.0625,-0.1875 0.09375,-0.40625 L 24,19.75 23.98437,19.859375 23.96874,19.96875 24.359365,19.859375 Q 24.75,19.75 24.75,19.5 24.75,19.25 24.375,19.125 24,19 23.625,19.125 23.25,19.25 23,19.5 22.75,19.75 22.375,19.875 L 22,20 22.28125,19.90625 22.5625,19.8125 22.375,19.875 q -0.1875,0.0625 -0.40625,0.09375 L 21.75,20 21.859375,19.98437 21.96875,19.96874 22.109375,19.609365 Q 22.25,19.25 22.5,19 q 0.25,-0.25 0.5,-0.5 0.25,-0.25 0.5,-0.5 0.25,-0.25 0.25,-0.5 0,-0.25 -0.375,-0.375 Q 23,17 22.5,17 q -0.5,0 -1,0 -0.5,0 -1,0 -0.5,0 -1,0 -0.5,0 -1,0 Q 18,17 17.625,16.875 17.25,16.75 17,16.5 16.75,16.25 16.375,16.125 16,16 15.625,16.125 15.25,16.25 15,16.5 14.75,16.75 14.375,16.875 14,17 13.5,17 q -0.5,0 -1,0 -0.5,0 -1,0 -0.5,0 -1,0 -0.5,0 -1,0 Q 9,17 8.625,17.125 8.25,17.25 8.25,17.5 q 0,0.25 0.25,0.5 0.25,0.25 0.5,0.5 0.25,0.25 0.5,0.5 0.25,0.25 0.390625,0.609375 L 10.03125,19.96875 10.140625,19.98438 10.25,20 10.03125,19.96875 Q 9.8125,19.9375 9.625,19.875 L 9.4375,19.8125 9.71875,19.90625 10,20 9.625,19.875 Q 9.25,19.75 9,19.5 8.75,19.25 8.375,19.125 8,19 7.625,19.125 7.25,19.25 7.25,19.5 q 0,0.25 0.390625,0.359375 L 8.03125,19.96875 8.015625,19.859375 8,19.75 8.03125,19.96875 Q 8.0625,20.1875 8.125,20.375 L 8.1875,20.5625 8.09375,20.28125 8,20 8.125,20.375 Q 8.25,20.75 8.5,21 8.75,21.25 9,21.5 9.25,21.75 9.625,21.875 10,22 10.375,22.125 10.75,22.25 11,22.5 q 0.25,0.25 0.625,0.375 L 12,23 11.71875,22.90625 11.4375,22.8125 11.625,22.875 q 0.1875,0.0625 0.375,0.0625 l 0.1875,0 -0.09375,0 -0.09375,0 0.125,0.40625 Q 12.25,23.75 12.625,23.875 13,24 13.375,24.125 13.75,24.25 14,24.5 14.25,24.75 14.625,24.875 15,25 15.5,25 q 0.5,0 1,0 M 19.375,12 19,12 18.875,12 18.75,12 19,12 q 0.25,0 0.5,0 l 0.25,0 -0.375,0 m -0.5,1 0.125,0 0.375,0 0.375,0 -0.25,0 q -0.25,0 -0.5,0 l -0.25,0 0.125,0 m -6.25,0 0.375,0 0.125,0 0.125,0 -0.25,0 q -0.25,0 -0.5,0 l -0.25,0 0.375,0 m 0.5,-1 -0.125,0 -0.375,0 -0.375,0 0.25,0 q 0.25,0 0.5,0 l 0.25,0 -0.125,0"
           id="path44618" />
        <path
           style="fill:#fb0007;fill-opacity:1"
           d="m 10,12.5 q 0.25,-0.25 0.5,-0.25 0.25,0 0.5,0.25 0.25,0.25 0.625,0.375 Q 12,13 12.5,13 q 0.5,0 1,0 0.5,0 0.875,0.125 0.375,0.125 0.625,0.375 0.25,0.25 0.625,0.375 0.375,0.125 0.75,0 Q 16.75,13.75 17,13.5 17.25,13.25 17.625,13.125 18,13 18.5,13 q 0.5,0 1,0 0.5,0 0.875,-0.125 Q 20.75,12.75 21,12.5 q 0.25,-0.25 0.5,-0.25 0.25,0 0.5,0.25 0.25,0.25 0.5,0.5 0.25,0.25 0.5,0.5 0.25,0.25 0.625,0.375 0.375,0.125 0.75,0.25 0.375,0.125 0.5,0.5 L 25,15 24.90625,14.71875 24.8125,14.4375 24.875,14.625 q 0.0625,0.1875 0.09375,0.40625 L 25,15.25 24.984375,15.140625 24.96875,15.03125 24.484375,15.015625 Q 24,15 23.625,15.125 23.25,15.25 23,15.5 22.75,15.75 22.375,15.875 22,16 21.5,16 21,16 20.5,16 20,16 19.5,16 19,16 18.625,15.875 18.25,15.75 18,15.5 17.75,15.25 17.375,15.125 17,15 16.5,15 16,15 15.5,15 15,15 14.625,15.125 14.25,15.25 14,15.5 13.75,15.75 13.375,15.875 13,16 12.5,16 12,16 11.5,16 11,16 10.5,16 10,16 9.625,15.875 9.25,15.75 9,15.5 8.75,15.25 8.375,15.125 8,15 7.515625,15.015625 L 7.03125,15.03125 7.015625,15.140625 7,15.25 7.03125,15.03125 Q 7.0625,14.8125 7.125,14.625 L 7.1875,14.4375 7.09375,14.71875 7,15 7.125,14.625 Q 7.25,14.25 7.625,14.125 8,14 8.375,13.875 8.75,13.75 9,13.5 9.25,13.25 9.5,13 9.75,12.75 10,12.5"
           id="path44620" />
        <path
           style="fill:#000000;fill-opacity:1"
           d="m 13,12.5 0,-0.5 0.5,0 q 0.5,0 1,0 l 0.5,0 0.125,0.375 q 0.125,0.375 0.5,0.5 0.375,0.125 0.75,0 0.375,-0.125 0.5,-0.5 L 17,12 l 0.5,0 q 0.5,0 1,0 l 0.5,0 0,0.5 0,0.5 -0.5,0 Q 18,13 17.625,13.125 17.25,13.25 17,13.5 16.75,13.75 16.375,13.875 16,14 15.625,13.875 15.25,13.75 15,13.5 14.75,13.25 14.375,13.125 14,13 13.5,13 L 13,13 13,12.5 M 12.875,13 13,13 l 0.375,0 0.375,0 -0.25,0 q -0.25,0 -0.5,0 l -0.25,0 0.125,0 m 5.75,0 0.375,0 0.125,0 0.125,0 -0.25,0 q -0.25,0 -0.5,0 l -0.25,0 0.375,0 m 0.5,-1 -0.125,0 -0.375,0 -0.375,0 0.25,0 q 0.25,0 0.5,0 l 0.25,0 -0.125,0 M 17.375,12 17,12 16.875,12 16.75,12 17,12 q 0.25,0 0.5,0 l 0.25,0 -0.375,0 m -2.25,0 -0.125,0 -0.375,0 -0.375,0 0.25,0 q 0.25,0 0.5,0 l 0.25,0 -0.125,0 M 13.375,12 13,12 12.875,12 12.75,12 13,12 q 0.25,0 0.5,0 l 0.25,0 -0.375,0"
           id="path44622" />
        <path
           style="fill:#700002;fill-opacity:1"
           d="M 15.125,12.375 15,12 l 0.5,0 q 0.5,0 1,0 l 0.5,0 -0.125,0.375 q -0.125,0.375 -0.5,0.5 -0.375,0.125 -0.75,0 -0.375,-0.125 -0.5,-0.5 m 2,-0.375 -0.125,0 -0.375,0 -0.375,0 0.25,0 q 0.25,0 0.5,0 l 0.25,0 -0.125,0 M 15.375,12 15,12 14.875,12 14.75,12 15,12 q 0.25,0 0.5,0 l 0.25,0 -0.375,0"
           id="path44624" />
        <path
           style="fill:#000000;fill-opacity:1"
           d="M 7,15.5 7,15 7,15.375 7,15.75 7,15.5 Q 7,15.25 7.03125,15.03125 L 7.0625,14.8125 7.046875,14.921875 7.03125,15.03125 7.515625,15.015625 8,15 7.625,15 7.25,15 7.5,15 q 0.25,0 0.46875,0.03125 L 8.1875,15.0625 8.078125,15.046875 7.96875,15.03125 7.984375,15.515625 Q 8,16 7.875,16.375 7.75,16.75 7.5,16.75 7.25,16.75 7.125,16.375 7,16 7,15.5"
           id="path44626" />
        <path
           style="fill:#000000;fill-opacity:1"
           d="m 24.015625,15.515625 0.01563,-0.484375 -0.109375,0.01563 -0.109375,0.01563 0.21875,-0.03125 Q 24.25,15 24.5,15 l 0.25,0 -0.375,0 -0.375,0 0.484375,0.01563 0.484375,0.01563 -0.01563,-0.109375 -0.01563,-0.109375 0.03125,0.21875 Q 25,15.25 25,15.5 l 0,0.25 0,-0.375 0,-0.375 0,0.5 Q 25,16 24.875,16.375 24.75,16.75 24.5,16.75 24.25,16.75 24.125,16.375 24,16 24.015625,15.515625"
           id="path44628" />
        <path
           style="fill:#000000;fill-opacity:1"
           d="M 15,16.5 Q 15.25,16.25 15.625,16.125 16,16 16.375,16.125 16.75,16.25 17,16.5 17.25,16.75 17.625,16.875 18,17 18.5,17 q 0.5,0 1,0 0.5,0 1,0 0.5,0 1,0 0.5,0 1,0 0.5,0 0.875,0.125 0.375,0.125 0.375,0.375 0,0.25 -0.25,0.5 -0.25,0.25 -0.5,0.5 -0.25,0.25 -0.5,0.5 -0.25,0.25 -0.390625,0.609375 L 21.96875,19.96875 22.078125,19.953125 22.1875,19.9375 21.96875,19.96875 Q 21.75,20 21.5,20 l -0.25,0 0.375,0 0.375,0 -0.5,0 q -0.5,0 -1,0 -0.5,0 -1,0 l -0.5,0 0.375,0 0.375,0 -0.25,0 q -0.25,0 -0.46875,-0.03125 l -0.21875,-0.03125 0.109375,0.01563 0.109375,0.01563 -0.140625,-0.359375 Q 18.75,19.25 18.5,19 18.25,18.75 18,18.5 17.75,18.25 17.5,18 17.25,17.75 17,17.5 16.75,17.25 16.375,17.125 16,17 15.625,17.125 15.25,17.25 15,17.5 14.75,17.75 14.5,18 14.25,18.25 14,18.5 13.75,18.75 13.5,19 13.25,19.25 13.109375,19.609375 L 12.96875,19.96875 13.078125,19.953125 13.1875,19.9375 12.96875,19.96875 Q 12.75,20 12.5,20 l -0.25,0 0.375,0 0.375,0 -0.5,0 q -0.5,0 -1,0 -0.5,0 -1,0 l -0.5,0 0.375,0 0.375,0 -0.25,0 q -0.25,0 -0.46875,-0.03125 L 9.8125,19.9375 9.921875,19.953125 10.03125,19.96875 9.890625,19.609375 Q 9.75,19.25 9.5,19 9.25,18.75 9,18.5 8.75,18.25 8.5,18 8.25,17.75 8.25,17.5 8.25,17.25 8.625,17.125 9,17 9.5,17 q 0.5,0 1,0 0.5,0 1,0 0.5,0 1,0 0.5,0 1,0 0.5,0 0.875,-0.125 Q 14.75,16.75 15,16.5 m -3.0625,2.3125 -0.0625,0.0625 0.4375,-0.0625 Q 12.75,18.75 12.75,18.5 q 0,-0.25 -0.4375,-0.3125 L 11.875,18.125 11.9375,18.1875 12,18.25 11.875,18.125 Q 11.75,18 11.5,18 l -0.25,0 0.375,0 0.375,0 -0.5,0 -0.5,0 0.375,0 0.375,0 -0.25,0 q -0.25,0 -0.375,0.125 L 11,18.25 11.0625,18.1875 11.125,18.125 10.6875,18.1875 Q 10.25,18.25 10.25,18.5 q 0,0.25 0.4375,0.3125 L 11.125,18.875 11.0625,18.8125 11,18.75 11.125,18.875 Q 11.25,19 11.5,19 l 0.25,0 -0.375,0 -0.375,0 0.5,0 0.5,0 -0.375,0 -0.375,0 0.25,0 q 0.25,0 0.375,-0.125 L 12,18.75 11.9375,18.8125 m 9,0 -0.0625,0.0625 0.4375,-0.0625 Q 21.75,18.75 21.75,18.5 q 0,-0.25 -0.4375,-0.3125 L 20.875,18.125 20.9375,18.1875 21,18.25 20.875,18.125 Q 20.75,18 20.5,18 l -0.25,0 0.375,0 0.375,0 -0.5,0 -0.5,0 0.375,0 0.375,0 -0.25,0 q -0.25,0 -0.375,0.125 L 20,18.25 20.0625,18.1875 20.125,18.125 19.6875,18.1875 Q 19.25,18.25 19.25,18.5 q 0,0.25 0.4375,0.3125 L 20.125,18.875 20.0625,18.8125 20,18.75 20.125,18.875 Q 20.25,19 20.5,19 l 0.25,0 -0.375,0 -0.375,0 0.5,0 0.5,0 -0.375,0 -0.375,0 0.25,0 q 0.25,0 0.375,-0.125 L 21,18.75 20.9375,18.8125"
           id="path44630" />
        <path
           style="fill:#fb0007;fill-opacity:1"
           d="M 4.125,17.625 Q 4.25,17.25 4.625,17.125 5,17 5.375,17.125 5.75,17.25 6,17.5 6.25,17.75 6.59375,17.875 L 6.9375,18 l 0,-0.09375 0,-0.09375 0,0.1875 q 0,0.1875 -0.0625,0.375 L 6.8125,18.5625 6.90625,18.28125 7,18 6.875,18.375 Q 6.75,18.75 6.375,18.875 6,19 5.5,19 L 5,19 5.375,19 5.75,19 5.5,19 Q 5.25,19 5.03125,18.96875 L 4.8125,18.9375 4.921875,18.953125 5.03125,18.96875 4.890625,18.609375 Q 4.75,18.25 4.40625,18.125 L 4.0625,18 l 0,0.09375 0,0.09375 0,-0.1875 q 0,-0.1875 0.0625,-0.375 L 4.1875,17.4375 4.09375,17.71875 4,18 4.125,17.625"
           id="path44632" />
        <path
           style="fill:#700002;fill-opacity:1"
           d="m 15,17.5 q 0.25,-0.25 0.625,-0.375 0.375,-0.125 0.75,0 0.375,0.125 0.625,0.375 0.25,0.25 0.5,0.5 0.25,0.25 0.5,0.5 0.25,0.25 0.5,0.5 0.25,0.25 0.390625,0.609375 L 19.03125,19.96875 19.140625,19.98438 19.25,20 19.03125,19.96875 Q 18.8125,19.9375 18.625,19.875 L 18.4375,19.8125 18.71875,19.90625 19,20 18.625,19.875 Q 18.25,19.75 18,19.5 17.75,19.25 17.375,19.125 17,19 16.5,19 16,19 15.5,19 15,19 14.625,19.125 14.25,19.25 14,19.5 13.75,19.75 13.375,19.875 L 13,20 13.28125,19.90625 13.5625,19.8125 13.375,19.875 q -0.1875,0.0625 -0.40625,0.09375 L 12.75,20 12.859375,19.98437 12.96875,19.96874 13.109375,19.609365 Q 13.25,19.25 13.5,19 13.75,18.75 14,18.5 14.25,18.25 14.5,18 14.75,17.75 15,17.5"
           id="path44634" />
        <path
           style="fill:#fb0007;fill-opacity:1"
           d="m 26,17.5 q 0.25,-0.25 0.625,-0.375 0.375,-0.125 0.75,0 0.375,0.125 0.5,0.5 L 28,18 27.90625,17.71875 27.8125,17.4375 27.875,17.625 q 0.0625,0.1875 0.0625,0.375 l 0,0.1875 0,-0.09375 0,-0.09375 -0.34375,0.125 Q 27.25,18.25 27.109375,18.609375 L 26.96875,18.96875 27.078125,18.953125 27.1875,18.9375 26.96875,18.96875 Q 26.75,19 26.5,19 l -0.25,0 0.375,0 0.375,0 -0.5,0 q -0.5,0 -0.875,-0.125 -0.375,-0.125 -0.5,-0.5 L 25,18 25.09375,18.28125 25.1875,18.5625 25.125,18.375 Q 25.0625,18.1875 25.0625,18 l 0,-0.1875 0,0.09375 0,0.09375 0.34375,-0.125 Q 25.75,17.75 26,17.5"
           id="path44636" />
        <path
           style="fill:#700002;fill-opacity:1"
           d="M 4.125,18.375 4,18 4.09375,18.28125 4.1875,18.5625 4.125,18.375 Q 4.0625,18.1875 4.0625,18 l 0,-0.1875 0,0.09375 0,0.09375 0.34375,0.125 Q 4.75,18.25 4.890625,18.609375 L 5.03125,18.96875 5.140625,18.984375 5.25,19 5.03125,18.96875 Q 4.8125,18.9375 4.625,18.875 L 4.4375,18.8125 4.71875,18.90625 5,19 4.625,18.875 q -0.375,-0.125 -0.5,-0.5"
           id="path44640" />
        <path
           style="fill:#1e1776;fill-opacity:1"
           d="m 10.25,18.5 q 0,-0.25 0.4375,-0.3125 L 11.125,18.125 11.1875,18.0625 11.25,18 11.125,18.125 Q 11,18.25 11,18.5 l 0,0.25 0,-0.375 0,-0.375 0,0.5 0,0.5 0,-0.375 0,-0.375 0,0.25 q 0,0.25 0.125,0.375 L 11.25,19 11.1875,18.9375 11.125,18.875 10.6875,18.8125 Q 10.25,18.75 10.25,18.5"
           id="path44642" />
        <path
           style="fill:#9e95ff;fill-opacity:1"
           d="M 11,18.5 Q 11,18 11.5,18 12,18 12,18.5 12,19 11.5,19 11,19 11,18.5"
           id="path44644" />
        <path
           style="fill:#1e1776;fill-opacity:1"
           d="m 12,18.5 0,-0.5 0,0.375 0,0.375 0,-0.25 q 0,-0.25 -0.125,-0.375 L 11.75,18 l 0.0625,0.0625 0.0625,0.0625 0.4375,0.0625 Q 12.75,18.25 12.75,18.5 q 0,0.25 -0.4375,0.3125 L 11.875,18.875 11.8125,18.9375 11.75,19 11.875,18.875 Q 12,18.75 12,18.5 l 0,-0.25 0,0.375 0,0.375 0,-0.5"
           id="path44646" />
        <path
           style="fill:#1e1776;fill-opacity:1"
           d="m 19.25,18.5 q 0,-0.25 0.4375,-0.3125 L 20.125,18.125 20.1875,18.0625 20.25,18 20.125,18.125 Q 20,18.25 20,18.5 l 0,0.25 0,-0.375 0,-0.375 0,0.5 0,0.5 0,-0.375 0,-0.375 0,0.25 q 0,0.25 0.125,0.375 L 20.25,19 20.1875,18.9375 20.125,18.875 19.6875,18.8125 Q 19.25,18.75 19.25,18.5"
           id="path44648" />
        <path
           style="fill:#9e95ff;fill-opacity:1"
           d="M 20,18.5 Q 20,18 20.5,18 21,18 21,18.5 21,19 20.5,19 20,19 20,18.5"
           id="path44650" />
        <path
           style="fill:#1e1776;fill-opacity:1"
           d="m 21,18.5 0,-0.5 0,0.375 0,0.375 0,-0.25 q 0,-0.25 -0.125,-0.375 L 20.75,18 l 0.0625,0.0625 0.0625,0.0625 0.4375,0.0625 Q 21.75,18.25 21.75,18.5 q 0,0.25 -0.4375,0.3125 L 20.875,18.875 20.8125,18.9375 20.75,19 20.875,18.875 Q 21,18.75 21,18.5 l 0,-0.25 0,0.375 0,0.375 0,-0.5"
           id="path44652" />
        <path
           style="fill:#700002;fill-opacity:1"
           d="M 27.109375,18.609375 Q 27.25,18.25 27.59375,18.125 L 27.9375,18 l 0,-0.09375 0,-0.09375 0,0.1875 q 0,0.1875 -0.0625,0.375 L 27.8125,18.5625 27.90625,18.28125 28,18 27.875,18.375 q -0.125,0.375 -0.5,0.5 L 27,19 27.28125,18.90625 27.5625,18.8125 27.375,18.875 q -0.1875,0.0625 -0.40625,0.09375 L 26.75,19 l 0.109375,-0.01563 0.109375,-0.01563 0.140625,-0.359375"
           id="path44654" />
        <path
           style="fill:#000000;fill-opacity:1"
           d="m 7.25,19.5 q 0,-0.25 0.375,-0.375 L 8,19 7.71875,19.09375 7.4375,19.1875 7.625,19.125 Q 7.8125,19.0625 8,19.0625 l 0.1875,0 -0.09375,0 L 8,19.0625 8,19.53125 8,20 8,19.625 8,19.25 8,19.5 q 0,0.25 0.03125,0.46875 L 8.0625,20.1875 8.046875,20.078125 8.03125,19.96875 7.640625,19.859375 Q 7.25,19.75 7.25,19.5"
           id="path44658" />
        <path
           style="fill:#fb0007;fill-opacity:1"
           d="m 8,19.53125 0,-0.46875 -0.09375,0 -0.09375,0 0.1875,0 q 0.1875,0 0.375,0.0625 L 8.5625,19.1875 8.28125,19.09375 8,19 8.375,19.125 Q 8.75,19.25 9,19.5 9.25,19.75 9.625,19.875 10,20 10.5,20 q 0.5,0 1,0 0.5,0 1,0 0.5,0 0.875,-0.125 Q 13.75,19.75 14,19.5 14.25,19.25 14.625,19.125 15,19 15.5,19 q 0.5,0 1,0 0.5,0 0.875,0.125 Q 17.75,19.25 18,19.5 18.25,19.75 18.625,19.875 19,20 19.5,20 q 0.5,0 1,0 0.5,0 1,0 0.5,0 0.875,-0.125 Q 22.75,19.75 23,19.5 23.25,19.25 23.625,19.125 L 24,19 23.71875,19.09375 23.4375,19.1875 23.625,19.125 Q 23.8125,19.0625 24,19.0625 l 0.1875,0 -0.09375,0 -0.09375,0 0,0.46875 Q 24,20 23.875,20.375 23.75,20.75 23.5,21 23.25,21.25 23,21.5 22.75,21.75 22.375,21.875 22,22 21.625,22.125 21.25,22.25 21,22.5 20.75,22.75 20.375,22.875 20,23 19.625,22.875 19.25,22.75 19,22.5 18.75,22.25 18.375,22.125 18,22 17.5,22 q -0.5,0 -1,0 -0.5,0 -1,0 -0.5,0 -1,0 Q 14,22 13.625,22.125 13.25,22.25 13,22.5 12.75,22.75 12.375,22.875 12,23 11.625,22.875 11.25,22.75 11,22.5 10.75,22.25 10.375,22.125 10,22 9.625,21.875 9.25,21.75 9,21.5 8.75,21.25 8.5,21 8.25,20.75 8.125,20.375 8,20 8,19.53125 M 15.625,20.875 Q 16,21 16.375,20.875 16.75,20.75 16.75,20.5 16.75,20.25 16.375,20.125 16,20 15.625,20.125 15.25,20.25 15.25,20.5 q 0,0.25 0.375,0.375"
           id="path44660" />
        <path
           style="fill:#000000;fill-opacity:1"
           d="m 24,19.53125 0,-0.46875 -0.09375,0 -0.09375,0 0.1875,0 q 0.1875,0 0.375,0.0625 L 24.5625,19.1875 24.28125,19.09375 24,19 l 0.375,0.125 q 0.375,0.125 0.375,0.375 0,0.25 -0.390625,0.359375 L 23.96875,19.96875 23.953125,20.078125 23.9375,20.1875 23.96875,19.96875 Q 24,19.75 24,19.5 l 0,-0.25 0,0.375 0,0.375 0,-0.46875"
           id="path44662" />
        <path
           style="fill:#000000;fill-opacity:1"
           d="m 15.25,20.5 q 0,-0.25 0.375,-0.375 0.375,-0.125 0.75,0 0.375,0.125 0.375,0.375 0,0.25 -0.375,0.375 Q 16,21 15.625,20.875 15.25,20.75 15.25,20.5"
           id="path44664" />
        <path
           style="fill:#000000;fill-opacity:1"
           d="M 13,22.5 Q 13.25,22.25 13.625,22.125 14,22 14.5,22 q 0.5,0 1,0 0.5,0 1,0 0.5,0 1,0 0.5,0 0.875,0.125 0.375,0.125 0.625,0.375 0.25,0.25 0.625,0.375 L 20,23 19.71875,22.90625 19.4375,22.8125 19.625,22.875 q 0.1875,0.0625 0.375,0.0625 l 0.1875,0 -0.09375,0 -0.09375,0 -0.125,0.40625 Q 19.75,23.75 19.375,23.875 L 19,24 18.875,23.625 Q 18.75,23.25 18.375,23.125 18,23 17.5,23 q -0.5,0 -1,0 -0.5,0 -1,0 -0.5,0 -1,0 -0.5,0 -0.875,0.125 -0.375,0.125 -0.5,0.5 L 13,24 12.625,23.875 Q 12.25,23.75 12.125,23.34375 L 12,22.9375 l -0.09375,0 -0.09375,0 0.1875,0 q 0.1875,0 0.375,-0.0625 L 12.5625,22.8125 12.28125,22.90625 12,23 12.375,22.875 Q 12.75,22.75 13,22.5 M 12.71875,23.90625 13,24 13.09375,24.03125 13.1875,24.0625 13,24 q -0.1875,-0.0625 -0.375,-0.125 l -0.1875,-0.0625 0.28125,0.09375 m 6.1875,0.125 L 19,24 19.28125,23.90625 19.5625,23.8125 19.375,23.875 Q 19.1875,23.9375 19,24 l -0.1875,0.0625 0.09375,-0.03125"
           id="path44666" />
        <path
           style="fill:#fb0007;fill-opacity:1"
           d="m 13.125,23.625 q 0.125,-0.375 0.5,-0.5 Q 14,23 14.5,23 q 0.5,0 1,0 0.5,0 1,0 0.5,0 1,0 0.5,0 0.875,0.125 0.375,0.125 0.5,0.5 L 19,24 18.625,24.125 Q 18.25,24.25 18,24.5 17.75,24.75 17.375,24.875 17,25 16.5,25 16,25 15.5,25 15,25 14.625,24.875 14.25,24.75 14,24.5 13.75,24.25 13.375,24.125 L 13,24 13.125,23.625 M 12.90625,23.96875 13,24 13.28125,24.09375 13.5625,24.1875 13.375,24.125 Q 13.1875,24.0625 13,24 l -0.1875,-0.0625 0.09375,0.03125 m 5.8125,0.125 L 19,24 19.09375,23.96875 19.1875,23.9375 19,24 q -0.1875,0.0625 -0.375,0.125 l -0.1875,0.0625 0.28125,-0.09375"
           id="path44668" />
        <path
           style="fill:#fb0007;fill-opacity:1"
           d="M 6,24.5 Q 6.25,24.25 6.625,24.125 7,24 7.5,24 L 8,24 7.625,24 7.25,24 7.5,24 q 0.25,0 0.46875,0.03125 L 8.1875,24.0625 8.078125,24.046875 7.96875,24.03125 8.109375,24.390625 Q 8.25,24.75 8.5,25 8.75,25.25 8.875,25.625 9,26 9.015625,26.515625 L 9.03125,27.03125 9.140625,27.015625 9.25,27 9.03125,27.03125 Q 8.8125,27.0625 8.625,27.125 L 8.4375,27.1875 8.71875,27.09375 9,27 8.625,27.125 Q 8.25,27.25 8,27.5 7.75,27.75 7.375,27.875 7,28 6.625,27.875 6.25,27.75 6,27.5 5.75,27.25 5.359375,27.109375 L 4.96875,26.96875 4.953125,27.078125 4.9375,27.1875 4.96875,26.96875 Q 5,26.75 5,26.5 L 5,26.25 5,26.625 5,27 5,26.5 Q 5,26 5.125,25.625 5.25,25.25 5.5,25 5.75,24.75 6,24.5"
           id="path44670" />
        <path
           style="fill:#700002;fill-opacity:1"
           d="M 8.109375,24.390625 7.96875,24.03125 7.859375,24.015625 7.75,24 7.96875,24.03125 Q 8.1875,24.0625 8.375,24.125 L 8.5625,24.1875 8.28125,24.09375 8,24 8.375,24.125 Q 8.75,24.25 9,24.5 9.25,24.75 9.625,24.875 10,25 10.375,25.125 10.75,25.25 10.75,25.5 q 0,0.25 -0.375,0.375 Q 10,26 9.484375,26.015625 L 8.96875,26.03125 8.984375,26.140625 9,26.25 8.96875,26.03125 Q 8.9375,25.8125 8.875,25.625 L 8.8125,25.4375 8.90625,25.71875 9,26 8.875,25.625 Q 8.75,25.25 8.5,25 8.25,24.75 8.109375,24.390625"
           id="path44672" />
        <path
           style="fill:#700002;fill-opacity:1"
           d="m 23,24.5 q 0.25,-0.25 0.625,-0.375 L 24,24 23.71875,24.09375 23.4375,24.1875 23.625,24.125 q 0.1875,-0.0625 0.40625,-0.09375 L 24.25,24 24.140625,24.01563 24.03125,24.03126 23.890625,24.390635 Q 23.75,24.75 23.5,25 23.25,25.25 23.125,25.625 L 23,26 23.09375,25.71875 23.1875,25.4375 23.125,25.625 q -0.0625,0.1875 -0.09375,0.40625 L 23,26.25 23.01563,26.140625 23.03126,26.03125 22.515635,26.01562 Q 22,26 21.625,25.875 21.25,25.75 21.25,25.5 q 0,-0.25 0.375,-0.375 Q 22,25 22.375,24.875 22.75,24.75 23,24.5"
           id="path44674" />
        <path
           style="fill:#fb0007;fill-opacity:1"
           d="M 23.890625,24.390625 24.03125,24.03125 23.921875,24.046875 23.8125,24.0625 24.03125,24.03125 Q 24.25,24 24.5,24 l 0.25,0 -0.375,0 -0.375,0 0.5,0 q 0.5,0 0.875,0.125 0.375,0.125 0.625,0.375 0.25,0.25 0.5,0.5 0.25,0.25 0.375,0.625 Q 27,26 27,26.5 l 0,0.5 0,-0.375 0,-0.375 0,0.25 q 0,0.25 0.03125,0.46875 L 27.0625,27.1875 27.04687,27.078125 27.03124,26.96875 26.640615,27.109375 Q 26.25,27.25 26,27.5 25.75,27.75 25.375,27.875 25,28 24.625,27.875 24.25,27.75 24,27.5 23.75,27.25 23.375,27.125 L 23,27 23.28125,27.09375 23.5625,27.1875 23.375,27.125 Q 23.1875,27.0625 22.96875,27.03125 L 22.75,27 l 0.109375,0.01563 0.109375,0.01563 0.01563,-0.515625 Q 23,26 23.125,25.625 23.25,25.25 23.5,25 q 0.25,-0.25 0.390625,-0.609375"
           id="path44676" />
        <path
           style="fill:#700002;fill-opacity:1"
           d="m 11.125,26.625 q 0.125,-0.375 0.5,-0.5 Q 12,26 12.5,26 13,26 13.375,26.125 13.75,26.25 14,26.5 14.25,26.75 14.625,26.875 15,27 15.5,27 q 0.5,0 1,0 0.5,0 0.875,-0.125 Q 17.75,26.75 18,26.5 18.25,26.25 18.625,26.125 19,26 19.5,26 q 0.5,0 0.875,0.125 0.375,0.125 0.5,0.5 L 21,27 20.5,27 Q 20,27 19.625,27.125 19.25,27.25 19,27.5 18.75,27.75 18.375,27.875 18,28 17.625,28.125 17.25,28.25 17,28.5 16.75,28.75 16.375,28.875 16,29 15.625,28.875 15.25,28.75 15,28.5 14.75,28.25 14.375,28.125 14,28 13.625,27.875 13.25,27.75 13,27.5 12.75,27.25 12.375,27.125 12,27 11.5,27 L 11,27 11.125,26.625 M 10.875,27 11,27 l 0.375,0 0.375,0 -0.25,0 q -0.25,0 -0.5,0 l -0.25,0 0.125,0 m 9.75,0 0.375,0 0.125,0 0.125,0 -0.25,0 q -0.25,0 -0.5,0 l -0.25,0 0.375,0"
           id="path44678" />
        <path
           style="fill:#700002;fill-opacity:1"
           d="M 4.875,27.375 5,27 4.90625,27.28125 4.8125,27.5625 4.875,27.375 Q 4.9375,27.1875 4.96875,26.96875 L 5,26.75 4.984375,26.859375 4.96875,26.96875 5.359375,27.109375 Q 5.75,27.25 6,27.5 6.25,27.75 6.625,27.875 7,28 7.375,27.875 7.75,27.75 8,27.5 8.25,27.25 8.625,27.125 9,27 9.5,27 L 10,27 9.875,27.375 Q 9.75,27.75 9.5,28 q -0.25,0.25 -0.25,0.5 0,0.25 0.375,0.375 Q 10,29 10.375,29.125 10.75,29.25 11,29.5 11.25,29.75 11.625,29.875 12,30 12.5,30 q 0.5,0 1,0 0.5,0 1,0 0.5,0 1,0 0.5,0 1,0 0.5,0 1,0 0.5,0 1,0 0.5,0 1,0 0.5,0 0.875,-0.125 Q 20.75,29.75 21,29.5 21.25,29.25 21.625,29.125 22,29 22.375,28.875 22.75,28.75 22.75,28.5 22.75,28.25 22.5,28 22.25,27.75 22.125,27.375 L 22,27 l 0.5,0 q 0.5,0 0.875,0.125 0.375,0.125 0.625,0.375 0.25,0.25 0.625,0.375 0.375,0.125 0.75,0 Q 25.75,27.75 26,27.5 26.25,27.25 26.640625,27.109375 L 27.03125,26.96875 27.015625,26.859375 27,26.75 27.03125,26.96875 Q 27.0625,27.1875 27.125,27.375 L 27.1875,27.5625 27.09375,27.28125 27,27 27.125,27.375 Q 27.25,27.75 27.5,28 q 0.25,0.25 0.375,0.625 L 28,29 l -0.5,0 -0.5,0 0.375,0 0.375,0 -0.25,0 q -0.25,0 -0.46875,0.03125 L 26.8125,29.0625 26.921875,29.04687 27.03125,29.03124 26.890625,28.640615 Q 26.75,28.25 26.5,28.25 26.25,28.25 26,28.5 25.75,28.75 25.375,28.875 25,29 24.5,29 24,29 23.625,29.125 23.25,29.25 23.25,29.5 q 0,0.25 0.25,0.5 0.25,0.25 0.25,0.5 0,0.25 -0.25,0.5 -0.25,0.25 -0.375,0.625 Q 23,32 22.875,32.375 22.75,32.75 22.5,33 22.25,33.25 22.125,33.625 22,34 22,34.5 q 0,0.5 0,1 0,0.5 0,1 0,0.5 0,1 0,0.5 0,1 0,0.5 0,1 L 22,40 21.625,39.875 Q 21.25,39.75 21,39.5 20.75,39.25 20.375,39.125 20,39 19.625,38.875 19.25,38.75 19.25,38.5 q 0,-0.25 0.25,-0.5 0.25,-0.25 0.375,-0.625 0.125,-0.375 0,-0.75 -0.125,-0.375 -0.5,-0.5 Q 19,36 18.625,35.875 18.25,35.75 18.125,35.375 18,35 17.984375,34.515625 L 17.96875,34.03125 17.859375,34.015625 17.75,34 17.96875,34.03125 Q 18.1875,34.0625 18.375,34.125 L 18.5625,34.1875 18.28125,34.09375 18,34 18.375,34.125 Q 18.75,34.25 19,34.5 q 0.25,0.25 0.625,0.375 0.375,0.125 0.75,0 Q 20.75,34.75 20.75,34.5 20.75,34.25 20.5,34 20.25,33.75 20.125,33.375 L 20,33 l 0.5,0 q 0.5,0 0.875,-0.125 0.375,-0.125 0.5,-0.5 Q 22,32 21.875,31.625 21.75,31.25 21.5,31.25 21.25,31.25 21,31.5 20.75,31.75 20.375,31.875 20,32 19.5,32 19,32 18.5,32 18,32 17.625,31.875 17.25,31.75 17,31.5 16.75,31.25 16.375,31.125 16,31 15.625,31.125 15.25,31.25 15,31.5 14.75,31.75 14.375,31.875 14,32 13.5,32 13,32 12.5,32 12,32 11.625,31.875 11.25,31.75 11,31.5 q -0.25,-0.25 -0.5,-0.25 -0.25,0 -0.375,0.375 -0.125,0.375 0,0.75 0.125,0.375 0.5,0.5 Q 11,33 11.5,33 l 0.5,0 -0.125,0.375 Q 11.75,33.75 11.5,34 q -0.25,0.25 -0.25,0.5 0,0.25 0.375,0.375 0.375,0.125 0.75,0 Q 12.75,34.75 13,34.5 13.25,34.25 13.625,34.125 L 14,34 13.71875,34.09375 13.4375,34.1875 13.625,34.125 q 0.1875,-0.0625 0.40625,-0.09375 L 14.25,34 14.140625,34.01563 14.03125,34.03126 14.01562,34.515635 Q 14,35 13.875,35.375 q -0.125,0.375 -0.5,0.5 -0.375,0.125 -0.75,0.25 -0.375,0.125 -0.5,0.5 -0.125,0.375 0,0.75 0.125,0.375 0.375,0.625 0.25,0.25 0.25,0.5 0,0.25 -0.375,0.375 Q 12,39 11.625,39.125 11.25,39.25 11,39.5 10.75,39.75 10.375,39.875 L 10,40 10,39.5 q 0,-0.5 0,-1 0,-0.5 0,-1 0,-0.5 0,-1 0,-0.5 0,-1 0,-0.5 0,-1 Q 10,34 9.875,33.625 9.75,33.25 9.5,33 9.25,32.75 9.125,32.375 9,32 8.875,31.625 8.75,31.25 8.5,31 8.25,30.75 8.25,30.5 8.25,30.25 8.5,30 8.75,29.75 8.75,29.5 8.75,29.25 8.375,29.125 8,29 7.5,29 7,29 6.625,28.875 6.25,28.75 6,28.5 5.75,28.25 5.5,28.25 q -0.25,0 -0.390625,0.390625 L 4.96875,29.03125 5.078125,29.046875 5.1875,29.0625 4.96875,29.03125 Q 4.75,29 4.5,29 L 4.25,29 4.625,29 5,29 4.5,29 4,29 4.125,28.625 Q 4.25,28.25 4.5,28 4.75,27.75 4.875,27.375 M 4.09375,28.71875 4,29 3.96875,29.09375 3.9375,29.1875 4,29 Q 4.0625,28.8125 4.125,28.625 L 4.1875,28.4375 4.09375,28.71875 M 10,39.625 10,40 10,40.125 10,40.25 10,40 q 0,-0.25 0,-0.5 l 0,-0.25 0,0.375 M 12.125,33 12,33 l -0.375,0 -0.375,0 0.25,0 q 0.25,0 0.5,0 l 0.25,0 -0.125,0 m 8.25,0 L 20,33 19.875,33 19.75,33 20,33 q 0.25,0 0.5,0 l 0.25,0 -0.375,0 M 22,40.125 22,40 l 0,-0.375 0,-0.375 0,0.25 q 0,0.25 0,0.5 l 0,0.25 0,-0.125 M 28.03125,29.09375 28,29 27.90625,28.71875 27.8125,28.4375 27.875,28.625 Q 27.9375,28.8125 28,29 l 0.0625,0.1875 -0.03125,-0.09375 M 22.375,27 22,27 21.875,27 21.75,27 22,27 q 0.25,0 0.5,0 l 0.25,0 -0.375,0 M 10.125,27 10,27 9.625,27 9.25,27 9.5,27 q 0.25,0 0.5,0 l 0.25,0 -0.125,0"
           id="path44680" />
        <path
           style="fill:#fb0007;fill-opacity:1"
           d="M 9.875,27.375 10,27 l 0.5,0 q 0.5,0 1,0 0.5,0 0.875,0.125 Q 12.75,27.25 13,27.5 13.25,27.75 13.625,27.875 14,28 14.375,28.125 14.75,28.25 15,28.5 q 0.25,0.25 0.625,0.375 0.375,0.125 0.75,0 Q 16.75,28.75 17,28.5 17.25,28.25 17.625,28.125 18,28 18.375,27.875 18.75,27.75 19,27.5 19.25,27.25 19.625,27.125 20,27 20.5,27 q 0.5,0 1,0 l 0.5,0 0.125,0.375 Q 22.25,27.75 22.5,28 q 0.25,0.25 0.25,0.5 0,0.25 -0.375,0.375 Q 22,29 21.625,29.125 21.25,29.25 21,29.5 20.75,29.75 20.375,29.875 20,30 19.5,30 q -0.5,0 -1,0 -0.5,0 -1,0 -0.5,0 -1,0 -0.5,0 -1,0 -0.5,0 -1,0 -0.5,0 -1,0 -0.5,0 -1,0 Q 12,30 11.625,29.875 11.25,29.75 11,29.5 10.75,29.25 10.375,29.125 10,29 9.625,28.875 9.25,28.75 9.25,28.5 9.25,28.25 9.5,28 9.75,27.75 9.875,27.375 M 22.125,27 22,27 l -0.375,0 -0.375,0 0.25,0 q 0.25,0 0.5,0 l 0.25,0 -0.125,0 M 10.375,27 10,27 9.875,27 9.75,27 10,27 q 0.25,0 0.5,0 l 0.25,0 -0.375,0"
           id="path44682" />
        <path
           style="fill:#fb0007;fill-opacity:1"
           d="M 3.875,29.375 4,29 4.5,29 Q 5,29 5.375,29.125 5.75,29.25 6,29.5 6.25,29.75 6.5,30 6.75,30.25 6.875,30.625 L 7,31 6.90625,30.71875 6.8125,30.4375 6.875,30.625 q 0.0625,0.1875 0.09375,0.40625 L 7,31.25 6.984375,31.140625 6.96875,31.03125 6.609375,31.140625 Q 6.25,31.25 6.125,31.625 6,32 5.875,32.375 5.75,32.75 5.5,33 5.25,33.25 5.125,33.625 5,34 5.125,34.375 q 0.125,0.375 0.5,0.5 0.375,0.125 0.75,0.25 0.375,0.125 0.5,0.5 L 7,36 6.5,36 Q 6,36 5.5,36 5,36 4.5,36 L 4,36 4,35.5 Q 4,35 4,34.5 4,34 4,33.5 4,33 3.875,32.625 3.75,32.25 3.390625,32.109375 L 3.03125,31.96875 3.046875,32.078125 3.0625,32.1875 3.03125,31.96875 Q 3,31.75 3,31.5 L 3,31.25 3,31.625 3,32 3,31.5 Q 3,31 3.125,30.625 3.25,30.25 3.5,30 3.75,29.75 3.875,29.375 M 4,35.625 4,36 4,36.125 4,36.25 4,36 q 0,-0.25 0,-0.5 l 0,-0.25 0,0.375 M 7.03125,36.09375 7,36 6.90625,35.71875 6.8125,35.4375 6.875,35.625 Q 6.9375,35.8125 7,36 l 0.0625,0.1875 -0.03125,-0.09375 m -3,-7.1875 L 4,29 3.90625,29.28125 3.8125,29.5625 3.875,29.375 Q 3.9375,29.1875 4,29 l 0.0625,-0.1875 -0.03125,0.09375"
           id="path44684" />
        <path
           style="fill:#fb0007;fill-opacity:1"
           d="M 26,29.5 Q 26.25,29.25 26.625,29.125 27,29 27.5,29 l 0.5,0 0.125,0.375 Q 28.25,29.75 28.5,30 28.75,30.25 28.875,30.625 29,31 29,31.5 l 0,0.5 0,-0.375 0,-0.375 0,0.25 q 0,0.25 -0.03125,0.46875 l -0.03125,0.21875 0.01563,-0.109375 0.01563,-0.109375 -0.359375,0.140625 Q 28.25,32.25 28.125,32.625 28,33 28,33.5 q 0,0.5 0,1 0,0.5 0,1 l 0,0.5 -0.5,0 q -0.5,0 -1,0 -0.5,0 -1,0 l -0.5,0 0.125,-0.375 q 0.125,-0.375 0.5,-0.5 Q 26,35 26.375,34.875 26.75,34.75 26.875,34.375 27,34 26.875,33.625 26.75,33.25 26.5,33 26.25,32.75 26.125,32.375 26,32 25.875,31.625 25.75,31.25 25.390625,31.140625 L 25.03125,31.03125 25.015625,31.140625 25,31.25 25.03125,31.03125 Q 25.0625,30.8125 25.125,30.625 L 25.1875,30.4375 25.09375,30.71875 25,31 25.125,30.625 Q 25.25,30.25 25.5,30 25.75,29.75 26,29.5 M 25.09375,35.71875 25,36 24.96875,36.09375 24.9375,36.1875 25,36 q 0.0625,-0.1875 0.125,-0.375 l 0.0625,-0.1875 -0.09375,0.28125 M 28,36.125 28,36 l 0,-0.375 0,-0.375 0,0.25 q 0,0.25 0,0.5 l 0,0.25 0,-0.125 M 28.09375,29.28125 28,29 27.96875,28.90625 27.9375,28.8125 28,29 q 0.0625,0.1875 0.125,0.375 l 0.0625,0.1875 -0.09375,-0.28125"
           id="path44686" />
        <path
           style="fill:#700002;fill-opacity:1"
           d="M 6.125,31.625 Q 6.25,31.25 6.609375,31.140625 L 6.96875,31.03125 6.953125,30.921875 6.9375,30.8125 6.96875,31.03125 Q 7,31.25 7,31.5 L 7,31.75 7,31.375 7,31 7,31.5 Q 7,32 6.875,32.375 6.75,32.75 6.5,33 6.25,33.25 6.25,33.5 6.25,33.75 6.5,34 6.75,34.25 7,34.5 7.25,34.75 7.5,35 7.75,35.25 7.875,35.625 8,36 7.953125,36.546875 L 7.90625,37.09375 7.953125,37.171875 8,37.25 7.90625,37.09375 Q 7.8125,36.9375 7.625,36.875 L 7.4375,36.8125 7.71875,36.90625 8,37 7.625,36.875 Q 7.25,36.75 7.125,36.375 7,36 6.875,35.625 6.75,35.25 6.375,35.125 6,35 5.625,34.875 5.25,34.75 5.125,34.375 5,34 5.125,33.625 5.25,33.25 5.5,33 5.75,32.75 5.875,32.375 6,32 6.125,31.625"
           id="path44688" />
        <path
           style="fill:#000000;fill-opacity:1"
           d="M 10.125,31.625 Q 10.25,31.25 10.5,31.25 q 0.25,0 0.5,0.25 0.25,0.25 0.625,0.375 Q 12,32 12.5,32 q 0.5,0 1,0 0.5,0 0.875,-0.125 Q 14.75,31.75 15,31.5 15.25,31.25 15.625,31.125 16,31 16.375,31.125 16.75,31.25 17,31.5 17.25,31.75 17.625,31.875 18,32 18.5,32 q 0.5,0 1,0 0.5,0 0.875,-0.125 Q 20.75,31.75 21,31.5 q 0.25,-0.25 0.5,-0.25 0.25,0 0.375,0.375 L 22,32 21.90625,31.71875 21.8125,31.4375 21.875,31.625 q 0.0625,0.1875 0.0625,0.375 l 0,0.1875 0,-0.09375 0,-0.09375 -0.34375,0.125 Q 21.25,32.25 21.109375,32.609375 L 20.96875,32.96875 21.078125,32.953125 21.1875,32.9375 20.96875,32.96875 Q 20.75,33 20.5,33 l -0.25,0 0.375,0 0.375,0 -0.5,0 q -0.5,0 -1,0 -0.5,0 -1,0 -0.5,0 -1,0 L 17,33 16.875,32.625 q -0.125,-0.375 -0.5,-0.5 -0.375,-0.125 -0.75,0 -0.375,0.125 -0.5,0.5 L 15,33 14.5,33 q -0.5,0 -1,0 -0.5,0 -1,0 -0.5,0 -1,0 l -0.5,0 0.375,0 0.375,0 -0.25,0 q -0.25,0 -0.46875,-0.03125 l -0.21875,-0.03125 0.109375,0.01563 0.109375,0.01563 -0.140625,-0.359375 Q 10.75,32.25 10.40625,32.125 L 10.0625,32 l 0,0.09375 0,0.09375 0,-0.1875 q 0,-0.1875 0.0625,-0.375 L 10.1875,31.4375 10.09375,31.71875 10,32 10.125,31.625 M 14.625,33 15,33 15.125,33 15.25,33 15,33 q -0.25,0 -0.5,0 l -0.25,0 0.375,0 m 2.25,0 0.125,0 0.375,0 0.375,0 -0.25,0 q -0.25,0 -0.5,0 l -0.25,0 0.125,0"
           id="path44690" />
        <path
           style="fill:#700002;fill-opacity:1"
           d="m 25,31.5 0,-0.5 0,0.375 0,0.375 0,-0.25 q 0,-0.25 0.03125,-0.46875 l 0.03125,-0.21875 -0.01563,0.109375 -0.01563,0.109375 0.359375,0.109375 Q 25.75,31.25 25.875,31.625 26,32 26.125,32.375 26.25,32.75 26.5,33 q 0.25,0.25 0.375,0.625 0.125,0.375 0,0.75 -0.125,0.375 -0.5,0.5 -0.375,0.125 -0.75,0.25 -0.375,0.125 -0.5,0.5 -0.125,0.375 -0.25,0.75 -0.125,0.375 -0.5,0.5 L 24,37 24.28125,36.90625 24.5625,36.8125 24.375,36.875 q -0.1875,0.0625 -0.28125,0.21875 L 24,37.25 24.04687,37.17187 24.09374,37.09374 24.04687,36.546865 Q 24,36 24.125,35.625 24.25,35.25 24.5,35 24.75,34.75 25,34.5 25.25,34.25 25.5,34 25.75,33.75 25.75,33.5 25.75,33.25 25.5,33 25.25,32.75 25.125,32.375 25,32 25,31.5"
           id="path44692" />
        <path
           style="fill:#700002;fill-opacity:1"
           d="M 3.125,32.375 3,32 3.09375,32.28125 3.1875,32.5625 3.125,32.375 Q 3.0625,32.1875 3.03125,31.96875 L 3,31.75 3.015625,31.859375 3.03125,31.96875 3.390625,32.109375 Q 3.75,32.25 3.875,32.625 L 4,33 3.90625,32.71875 3.8125,32.4375 3.875,32.625 q 0.0625,0.1875 0.09375,0.40625 L 4,33.25 3.984375,33.140625 3.96875,33.03125 3.609375,32.890625 Q 3.25,32.75 3.125,32.375"
           id="path44694" />
        <path
           style="fill:#fb0007;fill-opacity:1"
           d="M 10.125,32.375 10,32 10.09375,32.28125 10.1875,32.5625 10.125,32.375 Q 10.0625,32.1875 10.0625,32 l 0,-0.1875 0,0.09375 0,0.09375 0.34375,0.125 Q 10.75,32.25 10.890625,32.609375 L 11.03125,32.96875 11.140625,32.98438 11.25,33 11.03125,32.96875 Q 10.8125,32.9375 10.625,32.875 L 10.4375,32.8125 10.71875,32.90625 11,33 10.625,32.875 q -0.375,-0.125 -0.5,-0.5"
           id="path44696" />
        <path
           style="fill:#700002;fill-opacity:1"
           d="m 15.125,32.625 q 0.125,-0.375 0.5,-0.5 0.375,-0.125 0.75,0 0.375,0.125 0.5,0.5 L 17,33 16.5,33 q -0.5,0 -1,0 L 15,33 15.125,32.625 M 14.875,33 15,33 l 0.375,0 0.375,0 -0.25,0 q -0.25,0 -0.5,0 l -0.25,0 0.125,0 m 1.75,0 0.375,0 0.125,0 0.125,0 -0.25,0 q -0.25,0 -0.5,0 l -0.25,0 0.375,0"
           id="path44698" />
        <path
           style="fill:#fb0007;fill-opacity:1"
           d="M 21.109375,32.609375 Q 21.25,32.25 21.59375,32.125 L 21.9375,32 l 0,-0.09375 0,-0.09375 0,0.1875 q 0,0.1875 -0.0625,0.375 L 21.8125,32.5625 21.90625,32.28125 22,32 21.875,32.375 q -0.125,0.375 -0.5,0.5 L 21,33 21.28125,32.90625 21.5625,32.8125 21.375,32.875 q -0.1875,0.0625 -0.40625,0.09375 L 20.75,33 l 0.109375,-0.01563 0.109375,-0.01563 0.140625,-0.359375"
           id="path44700" />
        <path
           style="fill:#700002;fill-opacity:1"
           d="M 28.125,32.625 Q 28.25,32.25 28.609375,32.109375 L 28.96875,31.96875 28.984375,31.859375 29,31.75 28.96875,31.96875 Q 28.9375,32.1875 28.875,32.375 L 28.8125,32.5625 28.90625,32.28125 29,32 28.875,32.375 Q 28.75,32.75 28.390625,32.890625 L 28.03125,33.03125 28.015625,33.140625 28,33.25 28.03125,33.03125 Q 28.0625,32.8125 28.125,32.625 L 28.1875,32.4375 28.09375,32.71875 28,33 28.125,32.625"
           id="path44702" />
        <path
           style="fill:#fb0007;fill-opacity:1"
           d="M 11.875,33.375 12,33 l 0.5,0 q 0.5,0 1,0 0.5,0 1,0 0.5,0 1,0 0.5,0 1,0 0.5,0 1,0 0.5,0 1,0 0.5,0 1,0 l 0.5,0 0.125,0.375 Q 20.25,33.75 20.5,34 q 0.25,0.25 0.25,0.5 0,0.25 -0.375,0.375 Q 20,35 19.625,34.875 19.25,34.75 19,34.5 18.75,34.25 18.375,34.125 18,34 17.5,34 q -0.5,0 -1,0 -0.5,0 -1,0 -0.5,0 -1,0 Q 14,34 13.625,34.125 13.25,34.25 13,34.5 12.75,34.75 12.375,34.875 12,35 11.625,34.875 11.25,34.75 11.25,34.5 q 0,-0.25 0.25,-0.5 0.25,-0.25 0.375,-0.625 M 20.125,33 20,33 l -0.375,0 -0.375,0 0.25,0 q 0.25,0 0.5,0 l 0.25,0 -0.125,0 M 12.375,33 12,33 11.875,33 11.75,33 12,33 q 0.25,0 0.5,0 l 0.25,0 -0.375,0"
           id="path44706" />
        <path
           style="fill:#000000;fill-opacity:1"
           d="m 14.015625,34.515625 0.01563,-0.484375 -0.109375,0.01563 -0.109375,0.01563 0.21875,-0.03125 Q 14.25,34 14.5,34 l 0.25,0 -0.375,0 -0.375,0 0.5,0 q 0.5,0 1,0 0.5,0 1,0 0.5,0 1,0 l 0.5,0 -0.375,0 -0.375,0 0.25,0 q 0.25,0 0.46875,0.03125 L 18.1875,34.0625 18.078125,34.04687 17.96875,34.03124 17.98438,34.515615 18,35 l 0,-0.375 0,-0.375 0,0.25 q 0,0.25 0.03125,0.46875 L 18.0625,35.1875 18.04687,35.078125 18.03124,34.96875 17.515615,34.98438 Q 17,35 16.5,35 16,35 15.5,35 15,35 14.484375,34.984375 L 13.96875,34.96875 13.953125,35.078125 13.9375,35.1875 13.96875,34.96875 Q 14,34.75 14,34.5 l 0,-0.25 0,0.375 0,0.375 0.01563,-0.484375"
           id="path44710" />
        <path
           style="fill:#700002;fill-opacity:1"
           d="m 3.125,35.625 q 0.125,-0.375 0.5,-0.5 L 4,35 4,35.5 q 0,0.5 0,1 L 4,37 4,36.625 4,36.25 4,36.5 q 0,0.25 0.03125,0.46875 L 4.0625,37.1875 4.046875,37.078125 4.03125,36.96875 3.515625,36.984375 3,37 3,36.5 Q 3,36 3.125,35.625 M 3,36.625 3,37 3,37.125 3,37.25 3,37 q 0,-0.25 0,-0.5 l 0,-0.25 0,0.375 M 4,35.375 4,35 4,34.875 4,34.75 4,35 q 0,0.25 0,0.5 l 0,0.25 0,-0.375"
           id="path44712" />
        <path
           style="fill:#fb0007;fill-opacity:1"
           d="M 13.875,35.375 14,35 13.90625,35.28125 13.8125,35.5625 13.875,35.375 q 0.0625,-0.1875 0.09375,-0.40625 L 14,34.75 l -0.01563,0.109375 -0.01563,0.109375 0.515625,0.01563 Q 15,35 15.5,35 q 0.5,0 1,0 0.5,0 1.015625,-0.01563 L 18.03125,34.96875 18.015625,34.859375 18,34.75 18.03125,34.96875 Q 18.0625,35.1875 18.125,35.375 L 18.1875,35.5625 18.09375,35.28125 18,35 l 0.125,0.375 q 0.125,0.375 0.5,0.5 0.375,0.125 0.75,0.25 0.375,0.125 0.5,0.5 L 20,37 19.90625,36.71875 19.8125,36.4375 19.875,36.625 q 0.0625,0.1875 0.0625,0.375 l 0,0.1875 0,-0.09375 0,-0.09375 -0.46875,0 Q 19,37 18.625,37.125 18.25,37.25 18,37.5 17.75,37.75 17.5,38 17.25,38.25 17,38.5 16.75,38.75 16.375,38.875 16,39 15.625,38.875 15.25,38.75 15,38.5 14.75,38.25 14.5,38 14.25,37.75 14,37.5 13.75,37.25 13.375,37.125 13,37 12.53125,37 l -0.46875,0 0,0.09375 0,0.09375 0,-0.1875 q 0,-0.1875 0.0625,-0.375 L 12.1875,36.4375 12.09375,36.71875 12,37 12.125,36.625 q 0.125,-0.375 0.5,-0.5 0.375,-0.125 0.75,-0.25 0.375,-0.125 0.5,-0.5 m 1.75,1.5 Q 16,37 16.375,36.875 16.75,36.75 16.75,36.5 16.75,36.25 16.375,36.125 16,36 15.625,36.125 15.25,36.25 15.25,36.5 q 0,0.25 0.375,0.375"
           id="path44714" />
        <path
           style="fill:#700002;fill-opacity:1"
           d="m 28,35.5 0,-0.5 0.375,0.125 q 0.375,0.125 0.5,0.5 Q 29,36 29,36.5 l 0,0.5 -0.515625,-0.01563 -0.515625,-0.01563 -0.01563,0.109375 -0.01563,0.109375 0.03125,-0.21875 Q 28,36.75 28,36.5 l 0,-0.25 0,0.375 0,0.375 0,-0.5 q 0,-0.5 0,-1 m 1,1.625 0,-0.125 0,-0.375 0,-0.375 0,0.25 q 0,0.25 0,0.5 l 0,0.25 0,-0.125 m -1,-2.25 0,0.125 0,0.375 0,0.375 0,-0.25 q 0,-0.25 0,-0.5 l 0,-0.25 0,0.125"
           id="path44716" />
        <path
           style="fill:#fd9409;fill-opacity:1"
           d="M 4,36.5 4,36 4.5,36 q 0.5,0 1,0 0.5,0 1,0 l 0.5,0 0.125,0.375 q 0.125,0.375 0.5,0.5 Q 8,37 8,37.5 8,38 8,38.5 L 8,39 8,38.625 8,38.25 8,38.5 q 0,0.25 -0.03125,0.46875 L 7.9375,39.1875 7.953125,39.078125 7.96875,38.96875 7.609375,38.859375 Q 7.25,38.75 7,38.5 6.75,38.25 6.375,38.125 L 6,38 5.875,37.625 Q 5.75,37.25 5.5,37.25 q -0.25,0 -0.375,0.375 L 5,38 5.09375,37.71875 5.1875,37.4375 5.125,37.625 Q 5.0625,37.8125 5.03125,38.03125 L 5,38.25 5.015625,38.140625 5.03125,38.03125 4.640625,37.890625 Q 4.25,37.75 4.125,37.375 4,37 4,36.5 M 5.90625,37.71875 6,38 6.03125,38.09375 6.0625,38.1875 6,38 Q 5.9375,37.8125 5.875,37.625 L 5.8125,37.4375 5.90625,37.71875 M 7.09375,36.28125 7,36 6.96875,35.90625 6.9375,35.8125 7,36 q 0.0625,0.1875 0.125,0.375 L 7.1875,36.5625 7.09375,36.28125 M 4,35.875 4,36 4,36.375 4,36.75 4,36.5 Q 4,36.25 4,36 l 0,-0.25 0,0.125"
           id="path44718" />
        <path
           style="fill:#000000;fill-opacity:1"
           d="m 15.25,36.5 q 0,-0.25 0.375,-0.375 0.375,-0.125 0.75,0 0.375,0.125 0.375,0.375 0,0.25 -0.375,0.375 Q 16,37 15.625,36.875 15.25,36.75 15.25,36.5"
           id="path44720" />
        <path
           style="fill:#fd9409;fill-opacity:1"
           d="M 24.875,36.375 25,36 l 0.5,0 q 0.5,0 1,0 0.5,0 1,0 l 0.5,0 0,0.5 q 0,0.5 -0.125,0.875 -0.125,0.375 -0.515625,0.515625 L 26.96875,38.03125 26.984375,38.140625 27,38.25 26.96875,38.03125 Q 26.9375,37.8125 26.875,37.625 L 26.8125,37.4375 26.90625,37.71875 27,38 26.875,37.625 Q 26.75,37.25 26.5,37.25 q -0.25,0 -0.375,0.375 L 26,38 25.625,38.125 Q 25.25,38.25 25,38.5 q -0.25,0.25 -0.609375,0.359375 l -0.359375,0.109375 0.01563,0.109375 0.01563,0.109375 -0.03125,-0.21875 Q 24,38.75 24,38.5 l 0,-0.25 0,0.375 0,0.375 0,-0.5 q 0,-0.5 0,-1 0,-0.5 0.375,-0.625 0.375,-0.125 0.5,-0.5 M 25.96875,38.09375 26,38 26.09375,37.71875 26.1875,37.4375 26.125,37.625 Q 26.0625,37.8125 26,38 l -0.0625,0.1875 0.03125,-0.09375 M 28,36.375 28,36 28,35.875 28,35.75 28,36 q 0,0.25 0,0.5 l 0,0.25 0,-0.375 M 25.03125,35.90625 25,36 24.90625,36.28125 24.8125,36.5625 24.875,36.375 Q 24.9375,36.1875 25,36 l 0.0625,-0.1875 -0.03125,0.09375"
           id="path44722" />
        <path
           style="fill:#9d5204;fill-opacity:1"
           d="M 3,37.5 3,37 3.515625,36.984375 4.03125,36.96875 4.015625,36.859375 4,36.75 4.03125,36.96875 Q 4.0625,37.1875 4.125,37.375 L 4.1875,37.5625 4.09375,37.28125 4,37 4.125,37.375 Q 4.25,37.75 4.640625,37.890625 L 5.03125,38.03125 5.046875,37.921875 5.0625,37.8125 5.03125,38.03125 Q 5,38.25 5,38.5 L 5,38.75 5,38.375 5,38 5,38.5 Q 5,39 4.875,39.375 4.75,39.75 4.5,39.75 4.25,39.75 4,39.5 3.75,39.25 3.5,39 3.25,38.75 3.125,38.375 3,38 3,37.5 M 3,36.875 3,37 3,37.375 3,37.75 3,37.5 Q 3,37.25 3,37 l 0,-0.25 0,0.125"
           id="path44724" />
        <path
           style="fill:#000000;fill-opacity:1"
           d="M 12.125,37.375 12,37 12.09375,37.28125 12.1875,37.5625 12.125,37.375 Q 12.0625,37.1875 12.0625,37 l 0,-0.1875 0,0.09375 0,0.09375 0.46875,0 0.46875,0 -0.375,0 -0.375,0 0.25,0 q 0.25,0 0.46875,0.03125 l 0.21875,0.03125 -0.109375,-0.01563 -0.109375,-0.01563 0.140625,0.359375 Q 13.25,37.75 13.5,38 q 0.25,0.25 0.375,0.625 0.125,0.375 0,0.75 -0.125,0.375 -0.5,0.5 -0.375,0.125 -0.75,0 -0.375,-0.125 -0.5,-0.5 L 12,39 12.375,38.875 Q 12.75,38.75 12.75,38.5 12.75,38.25 12.5,38 12.25,37.75 12.125,37.375 M 12.28125,38.90625 12,39 11.90625,39.03125 11.8125,39.0625 12,39 q 0.1875,-0.0625 0.375,-0.125 l 0.1875,-0.0625 -0.28125,0.09375"
           id="path44726" />
        <path
           style="fill:#700002;fill-opacity:1"
           d="M 13.109375,37.390625 12.96875,37.03125 12.859375,37.015625 12.75,37 12.96875,37.03125 Q 13.1875,37.0625 13.375,37.125 L 13.5625,37.1875 13.28125,37.09375 13,37 13.375,37.125 Q 13.75,37.25 14,37.5 q 0.25,0.25 0.5,0.5 0.25,0.25 0.5,0.5 0.25,0.25 0.625,0.375 0.375,0.125 0.75,0 Q 16.75,38.75 17,38.5 17.25,38.25 17.5,38 17.75,37.75 18,37.5 18.25,37.25 18.625,37.125 L 19,37 18.71875,37.09375 18.4375,37.1875 18.625,37.125 q 0.1875,-0.0625 0.40625,-0.09375 L 19.25,37 19.140625,37.01563 19.03125,37.03126 18.890625,37.390635 Q 18.75,37.75 18.5,38 q -0.25,0.25 -0.375,0.625 -0.125,0.375 0,0.75 0.125,0.375 0.5,0.5 L 19,40 18.71875,39.90625 18.4375,39.8125 18.625,39.875 q 0.1875,0.0625 0.375,0.0625 l 0.1875,0 -0.09375,0 -0.09375,0 0,0.53125 Q 19,41 19,41.5 19,42 19.125,42.375 19.25,42.75 19.5,43 19.75,43.25 19.875,43.625 20,44 20,44.5 q 0,0.5 0,1 0,0.5 -0.125,0.875 -0.125,0.375 -0.375,0.375 -0.25,0 -0.375,-0.375 Q 19,46 19,45.5 19,45 19,44.5 19,44 18.875,43.625 18.75,43.25 18.5,43 18.25,42.75 18.125,42.375 18,42 18,41.5 18,41 17.875,40.625 17.75,40.25 17.375,40.125 17,40 16.5,40 q -0.5,0 -1,0 -0.5,0 -0.875,0.125 -0.375,0.125 -0.5,0.5 Q 14,41 14,41.5 14,42 13.875,42.375 13.75,42.75 13.5,43 13.25,43.25 13.125,43.625 13,44 13,44.5 q 0,0.5 0,1 0,0.5 -0.125,0.875 -0.125,0.375 -0.375,0.375 -0.25,0 -0.375,-0.375 Q 12,46 12,45.5 12,45 12,44.5 12,44 12.125,43.625 12.25,43.25 12.5,43 12.75,42.75 12.875,42.375 13,42 13,41.5 13,41 13,40.46875 l 0,-0.53125 -0.09375,0 -0.09375,0 0.1875,0 q 0.1875,0 0.375,-0.0625 L 13.5625,39.8125 13.28125,39.90625 13,40 13.375,39.875 q 0.375,-0.125 0.5,-0.5 Q 14,39 13.875,38.625 13.75,38.25 13.5,38 13.25,37.75 13.109375,37.390625"
           id="path44728" />
        <path
           style="fill:#000000;fill-opacity:1"
           d="M 18.890625,37.390625 19.03125,37.03125 18.921875,37.046875 18.8125,37.0625 19.03125,37.03125 Q 19.25,37 19.5,37 l 0.25,0 -0.375,0 -0.375,0 0.46875,0 0.46875,0 0,-0.09375 0,-0.09375 0,0.1875 q 0,0.1875 -0.0625,0.375 L 19.8125,37.5625 19.90625,37.28125 20,37 19.875,37.375 Q 19.75,37.75 19.5,38 q -0.25,0.25 -0.25,0.5 0,0.25 0.375,0.375 L 20,39 19.875,39.375 q -0.125,0.375 -0.5,0.5 -0.375,0.125 -0.75,0 -0.375,-0.125 -0.5,-0.5 Q 18,39 18.125,38.625 18.25,38.25 18.5,38 18.75,37.75 18.890625,37.390625 M 20.09375,39.03125 20,39 19.71875,38.90625 19.4375,38.8125 19.625,38.875 Q 19.8125,38.9375 20,39 l 0.1875,0.0625 -0.09375,-0.03125"
           id="path44730" />
        <path
           style="fill:#9d5204;fill-opacity:1"
           d="M 27.875,37.375 28,37 27.90625,37.28125 27.8125,37.5625 27.875,37.375 q 0.0625,-0.1875 0.09375,-0.40625 L 28,36.75 27.98437,36.859375 27.96874,36.96875 28.484365,36.98438 29,37 29,37.5 Q 29,38 28.875,38.375 28.75,38.75 28.5,39 q -0.25,0.25 -0.5,0.5 -0.25,0.25 -0.5,0.25 -0.25,0 -0.375,-0.375 Q 27,39 27,38.5 l 0,-0.5 0,0.375 0,0.375 0,-0.25 q 0,-0.25 -0.03125,-0.46875 l -0.03125,-0.21875 0.01563,0.109375 0.01563,0.109375 0.390625,-0.140625 Q 27.75,37.75 27.875,37.375 M 29,37.375 29,37 29,36.875 29,36.75 29,37 q 0,0.25 0,0.5 l 0,0.25 0,-0.375"
           id="path44732" />
        <path
           style="fill:#9d5204;fill-opacity:1"
           d="M 6.125,38.375 6,38 6.375,38.125 Q 6.75,38.25 7,38.5 7.25,38.75 7.609375,38.859375 L 7.96875,38.96875 7.984375,38.859375 8,38.75 7.96875,38.96875 Q 7.9375,39.1875 7.875,39.375 L 7.8125,39.5625 7.90625,39.28125 8,39 7.875,39.375 Q 7.75,39.75 7.5,39.75 7.25,39.75 7,39.5 6.75,39.25 6.5,39 6.25,38.75 6.125,38.375 M 5.96875,37.90625 6,38 6.09375,38.28125 6.1875,38.5625 6.125,38.375 Q 6.0625,38.1875 6,38 l -0.0625,-0.1875 0.03125,0.09375"
           id="path44734" />
        <path
           style="fill:#9d5204;fill-opacity:1"
           d="m 25,38.5 q 0.25,-0.25 0.625,-0.375 L 26,38 25.875,38.375 Q 25.75,38.75 25.5,39 q -0.25,0.25 -0.5,0.5 -0.25,0.25 -0.5,0.25 -0.25,0 -0.375,-0.375 L 24,39 24.09375,39.28125 24.1875,39.5625 24.125,39.375 Q 24.0625,39.1875 24.03125,38.96875 L 24,38.75 l 0.01563,0.109375 0.01563,0.109375 0.359375,-0.109375 Q 24.75,38.75 25,38.5 M 25.90625,38.28125 26,38 26.03125,37.90625 26.0625,37.8125 26,38 q -0.0625,0.1875 -0.125,0.375 l -0.0625,0.1875 0.09375,-0.28125"
           id="path44736" />
        <path
           style="fill:#fb0007;fill-opacity:1"
           d="m 11,39.5 q 0.25,-0.25 0.625,-0.375 L 12,39 l 0.125,0.375 q 0.125,0.375 0.5,0.5 L 13,40 12.71875,39.90625 12.4375,39.8125 12.625,39.875 q 0.1875,0.0625 0.375,0.0625 l 0.1875,0 -0.09375,0 -0.09375,0 0,0.53125 Q 13,41 13,41.5 13,42 12.875,42.375 12.75,42.75 12.5,43 12.25,43.25 12.125,43.625 12,44 12,44.5 q 0,0.5 0,1 l 0,0.5 0,-0.375 0,-0.375 0,0.25 q 0,0.25 0.03125,0.46875 L 12.0625,46.1875 12.046875,46.078125 12.03125,45.96875 11.640625,45.859375 Q 11.25,45.75 11,45.5 10.75,45.25 10.375,45.125 10,45 9.625,44.875 9.25,44.75 9.125,44.375 L 9,44 9.09375,44.28125 9.1875,44.5625 9.125,44.375 Q 9.0625,44.1875 9.03125,43.96875 L 9,43.75 9.015625,43.859375 9.03125,43.96875 9.390625,43.859375 Q 9.75,43.75 9.875,43.375 L 10,43 l 0.5,0 q 0.5,0 0.875,-0.125 0.375,-0.125 0.375,-0.375 0,-0.25 -0.375,-0.375 L 11,42 11.28125,42.09375 11.5625,42.1875 11.375,42.125 Q 11.1875,42.0625 11,42.0625 l -0.1875,0 0.09375,0 0.09375,0 -0.125,-0.40625 Q 10.75,41.25 10.359375,41.109375 L 9.96875,40.96875 9.953125,41.078125 9.9375,41.1875 9.96875,40.96875 Q 10,40.75 10,40.5 l 0,-0.25 0,0.375 0,0.375 0,-0.5 0,-0.5 0.375,-0.125 Q 10.75,39.75 11,39.5 m -1,0.375 0,0.125 0,0.375 0,0.375 0,-0.25 q 0,-0.25 0,-0.5 l 0,-0.25 0,0.125 M 10.03125,42.90625 10,43 9.90625,43.28125 9.8125,43.5625 9.875,43.375 Q 9.9375,43.1875 10,43 l 0.0625,-0.1875 -0.03125,0.09375 m 2.0625,-3.9375 L 12,39 11.71875,39.09375 11.4375,39.1875 11.625,39.125 Q 11.8125,39.0625 12,39 l 0.1875,-0.0625 -0.09375,0.03125"
           id="path44740" />
        <path
           style="fill:#fb0007;fill-opacity:1"
           d="M 19.875,39.375 20,39 20.375,39.125 Q 20.75,39.25 21,39.5 q 0.25,0.25 0.625,0.375 L 22,40 l 0,0.5 0,0.5 0,-0.375 0,-0.375 0,0.25 q 0,0.25 0.03125,0.46875 L 22.0625,41.1875 22.04687,41.078125 22.03124,40.96875 21.640615,41.109375 Q 21.25,41.25 21.125,41.65625 L 21,42.0625 l 0.09375,0 0.09375,0 -0.1875,0 q -0.1875,0 -0.375,0.0625 L 20.4375,42.1875 20.71875,42.09375 21,42 20.625,42.125 Q 20.25,42.25 20.25,42.5 q 0,0.25 0.375,0.375 Q 21,43 21.5,43 l 0.5,0 0.125,0.375 q 0.125,0.375 0.484375,0.484375 L 22.96875,43.96875 22.984375,43.859375 23,43.75 22.96875,43.96875 Q 22.9375,44.1875 22.875,44.375 L 22.8125,44.5625 22.90625,44.28125 23,44 22.875,44.375 q -0.125,0.375 -0.5,0.5 Q 22,45 21.625,45.125 21.25,45.25 21,45.5 20.75,45.75 20.359375,45.859375 L 19.96875,45.96875 19.953125,46.078125 19.9375,46.1875 19.96875,45.96875 Q 20,45.75 20,45.5 l 0,-0.25 0,0.375 0,0.375 0,-0.5 Q 20,45 20,44.5 20,44 19.875,43.625 19.75,43.25 19.5,43 19.25,42.75 19.125,42.375 19,42 19,41.5 19,41 19,40.46875 l 0,-0.53125 -0.09375,0 -0.09375,0 0.1875,0 q 0.1875,0 0.375,-0.0625 L 19.5625,39.8125 19.28125,39.90625 19,40 19.375,39.875 q 0.375,-0.125 0.5,-0.5 M 22.09375,43.28125 22,43 21.96875,42.90625 21.9375,42.8125 22,43 q 0.0625,0.1875 0.125,0.375 l 0.0625,0.1875 -0.09375,-0.28125 M 22,40.375 22,40 22,39.875 22,39.75 22,40 q 0,0.25 0,0.5 l 0,0.25 0,-0.375 M 20.28125,39.09375 20,39 19.90625,38.96875 19.8125,38.9375 20,39 q 0.1875,0.0625 0.375,0.125 l 0.1875,0.0625 -0.28125,-0.09375"
           id="path44742" />
        <path
           style="fill:#700002;fill-opacity:1"
           d="M 9.875,41.375 10,41 9.90625,41.28125 9.8125,41.5625 9.875,41.375 Q 9.9375,41.1875 9.96875,40.96875 L 10,40.75 9.984375,40.859375 9.96875,40.96875 10.359375,41.109375 Q 10.75,41.25 10.875,41.65625 L 11,42.0625 l 0.09375,0 0.09375,0 -0.1875,0 q -0.1875,0 -0.375,0.0625 L 10.4375,42.1875 10.71875,42.09375 11,42 10.625,42.125 q -0.375,0.125 -0.5,0.5 Q 10,43 9.875,43.375 9.75,43.75 9.390625,43.859375 L 9.03125,43.96875 9.046875,44.078125 9.0625,44.1875 9.03125,43.96875 Q 9,43.75 9,43.5 L 9,43.25 9,43.625 9,44 9,43.5 Q 9,43 9.125,42.625 9.25,42.25 9.5,42 9.75,41.75 9.875,41.375"
           id="path44746" />
        <path
           style="fill:#700002;fill-opacity:1"
           d="M 21.125,41.65625 Q 21.25,41.25 21.640625,41.109375 L 22.03125,40.96875 22.015625,40.859375 22,40.75 22.03125,40.96875 Q 22.0625,41.1875 22.125,41.375 L 22.1875,41.5625 22.09375,41.28125 22,41 22.125,41.375 Q 22.25,41.75 22.5,42 22.75,42.25 22.875,42.625 23,43 23,43.5 l 0,0.5 0,-0.375 0,-0.375 0,0.25 q 0,0.25 -0.03125,0.46875 L 22.9375,44.1875 22.95313,44.078125 22.96876,43.96875 22.609385,43.859375 Q 22.25,43.75 22.125,43.375 22,43 21.875,42.625 21.75,42.25 21.375,42.125 L 21,42 21.28125,42.09375 21.5625,42.1875 21.375,42.125 Q 21.1875,42.0625 21,42.0625 l -0.1875,0 0.09375,0 0.09375,0 0.125,-0.40625"
           id="path44748" />
        <path
           style="fill:#000000;fill-opacity:1"
           d="m 10.125,42.625 q 0.125,-0.375 0.5,-0.5 0.375,-0.125 0.75,0 0.375,0.125 0.375,0.375 0,0.25 -0.375,0.375 Q 11,43 10.5,43 L 10,43 10.125,42.625 M 10.09375,42.71875 10,43 9.96875,43.09375 9.9375,43.1875 10,43 q 0.0625,-0.1875 0.125,-0.375 l 0.0625,-0.1875 -0.09375,0.28125"
           id="path44750" />
        <path
           style="fill:#000000;fill-opacity:1"
           d="m 20.25,42.5 q 0,-0.25 0.375,-0.375 0.375,-0.125 0.75,0 0.375,0.125 0.5,0.5 L 22,43 21.5,43 Q 21,43 20.625,42.875 20.25,42.75 20.25,42.5 M 22.03125,43.09375 22,43 21.90625,42.71875 21.8125,42.4375 21.875,42.625 Q 21.9375,42.8125 22,43 l 0.0625,0.1875 -0.03125,-0.09375"
           id="path44752" />
        <path
           style="fill:#9d5204;fill-opacity:1"
           d="m 8.125,46.625 q 0.125,-0.375 0.5,-0.5 L 9,46 8.71875,46.09375 8.4375,46.1875 8.625,46.125 Q 8.8125,46.0625 9.03125,46.03125 L 9.25,46 9.140625,46.015625 9.03125,46.03125 8.890625,46.390625 Q 8.75,46.75 8.375,46.875 L 8,47 8.125,46.625 M 8.09375,46.71875 8,47 7.96875,47.09375 7.9375,47.1875 8,47 q 0.0625,-0.1875 0.125,-0.375 l 0.0625,-0.1875 -0.09375,0.28125"
           id="path44756" />
        <path
           style="fill:#fd9409;fill-opacity:1"
           d="M 8.890625,46.390625 9.03125,46.03125 8.921875,46.046875 8.8125,46.0625 9.03125,46.03125 Q 9.25,46 9.5,46 L 9.75,46 9.375,46 9,46 9.5,46 q 0.5,0 0.875,0.125 0.375,0.125 0.5,0.5 Q 11,47 11,47.5 q 0,0.5 0,1 0,0.5 0.01563,0.984375 l 0.01563,0.484375 0.109375,0.01563 L 11.25,50 11.03125,49.96875 Q 10.8125,49.9375 10.625,49.875 L 10.4375,49.8125 10.71875,49.90625 11,50 10.625,49.875 Q 10.25,49.75 10.125,49.375 10,49 9.875,48.625 9.75,48.25 9.5,48.25 q -0.25,0 -0.375,0.375 L 9,49 8.625,49.125 Q 8.25,49.25 8.109375,49.609375 L 7.96875,49.96875 8.078125,49.953125 8.1875,49.9375 7.96875,49.96875 Q 7.75,50 7.5,50 L 7.25,50 7.625,50 8,50 7.5,50 7,50 7.375,50 7.75,50 7.5,50 Q 7.25,50 7.03125,49.96875 L 6.8125,49.9375 6.921875,49.953125 7.03125,49.96875 7.015625,49.484375 Q 7,49 7.125,48.625 7.25,48.25 7.5,48 7.75,47.75 7.875,47.375 L 8,47 8.375,46.875 Q 8.75,46.75 8.890625,46.390625 M 8.03125,46.90625 8,47 7.90625,47.28125 7.8125,47.5625 7.875,47.375 Q 7.9375,47.1875 8,47 l 0.0625,-0.1875 -0.03125,0.09375 m 0.9375,2.1875 L 9,49 9.09375,48.71875 9.1875,48.4375 9.125,48.625 Q 9.0625,48.8125 9,49 l -0.0625,0.1875 0.03125,-0.09375"
           id="path44758" />
        <path
           style="fill:#fd9409;fill-opacity:1"
           d="m 21.125,46.625 q 0.125,-0.375 0.5,-0.5 Q 22,46 22.5,46 l 0.5,0 -0.375,0 -0.375,0 0.25,0 q 0.25,0 0.46875,0.03125 l 0.21875,0.03125 -0.109375,-0.01563 -0.109375,-0.01563 0.140625,0.359375 Q 23.25,46.75 23.625,46.875 L 24,47 24.125,47.375 Q 24.25,47.75 24.5,48 24.75,48.25 24.875,48.625 25,49 24.984375,49.484375 l -0.01563,0.484375 0.109375,-0.01563 0.109375,-0.01563 -0.21875,0.03125 Q 24.75,50 24.5,50 l -0.25,0 0.375,0 0.375,0 -0.5,0 -0.5,0 0.375,0 0.375,0 -0.25,0 q -0.25,0 -0.46875,-0.03125 l -0.21875,-0.03125 0.109375,0.01563 0.109375,0.01563 -0.140625,-0.359375 Q 23.75,49.25 23.375,49.125 L 23,49 22.875,48.625 Q 22.75,48.25 22.5,48.25 q -0.25,0 -0.375,0.375 -0.125,0.375 -0.25,0.75 -0.125,0.375 -0.5,0.5 L 21,50 21.28125,49.90625 21.5625,49.8125 21.375,49.875 q -0.1875,0.0625 -0.40625,0.09375 L 20.75,50 20.859375,49.98437 20.96875,49.96874 20.98438,49.484365 Q 21,49 21,48.5 21,48 21,47.5 21,47 21.125,46.625 M 22.90625,48.71875 23,49 23.03125,49.09375 23.0625,49.1875 23,49 q -0.0625,-0.1875 -0.125,-0.375 l -0.0625,-0.1875 0.09375,0.28125 m 1.1875,-1.4375 L 24,47 23.96875,46.90625 23.9375,46.8125 24,47 q 0.0625,0.1875 0.125,0.375 l 0.0625,0.1875 -0.09375,-0.28125"
           id="path44760" />
        <path
           style="fill:#9d5204;fill-opacity:1"
           d="M 23.109375,46.390625 22.96875,46.03125 22.859375,46.015625 22.75,46 22.96875,46.03125 Q 23.1875,46.0625 23.375,46.125 L 23.5625,46.1875 23.28125,46.09375 23,46 l 0.375,0.125 q 0.375,0.125 0.5,0.5 L 24,47 23.625,46.875 Q 23.25,46.75 23.109375,46.390625 M 24.03125,47.09375 24,47 23.90625,46.71875 23.8125,46.4375 23.875,46.625 Q 23.9375,46.8125 24,47 l 0.0625,0.1875 -0.03125,-0.09375"
           id="path44762" />
        <path
           style="fill:#9d5204;fill-opacity:1"
           d="m 11,47.5 0,-0.5 0,0.375 0,0.375 0,-0.25 q 0,-0.25 -0.03125,-0.46875 l -0.03125,-0.21875 0.01563,0.109375 0.01563,0.109375 0.390625,0.109375 Q 11.75,47.25 12,47.5 q 0.25,0.25 0.5,0.5 0.25,0.25 0.375,0.625 0.125,0.375 0,0.75 -0.125,0.375 -0.5,0.5 Q 12,50 11.5,50 l -0.5,0 0.375,0 0.375,0 -0.25,0 q -0.25,0 -0.46875,-0.03125 l -0.21875,-0.03125 0.109375,0.01563 0.109375,0.01563 -0.01563,-0.484375 Q 11,49 11,48.5 q 0,-0.5 0,-1"
           id="path44764" />
        <path
           style="fill:#9d5204;fill-opacity:1"
           d="m 20,47.5 q 0.25,-0.25 0.640625,-0.359375 L 21.03125,47.03125 21.046875,46.921875 21.0625,46.8125 21.03125,47.03125 Q 21,47.25 21,47.5 l 0,0.25 0,-0.375 0,-0.375 0,0.5 q 0,0.5 0,1 0,0.5 -0.01563,0.984375 l -0.01563,0.484375 0.109375,-0.01563 0.109375,-0.01563 -0.21875,0.03125 Q 20.75,50 20.5,50 l -0.25,0 0.375,0 0.375,0 -0.5,0 Q 20,50 19.625,49.875 19.25,49.75 19.125,49.375 19,49 19.125,48.625 19.25,48.25 19.5,48 19.75,47.75 20,47.5"
           id="path44766" />
        <path
           style="fill:#9d5204;fill-opacity:1"
           d="m 6.25,49.5 q 0,-0.25 0.390625,-0.359375 L 7.03125,49.03125 7.046875,48.921875 7.0625,48.8125 7.03125,49.03125 Q 7,49.25 7,49.5 L 7,49.75 7,49.375 7,49 7.015625,49.484375 7.03125,49.96875 7.140625,49.984375 7.25,50 7.03125,49.96875 Q 6.8125,49.9375 6.625,49.875 L 6.4375,49.8125 6.71875,49.90625 7,50 6.625,49.875 Q 6.25,49.75 6.25,49.5"
           id="path44768" />
        <path
           style="fill:#9d5204;fill-opacity:1"
           d="M 8.109375,49.609375 Q 8.25,49.25 8.625,49.125 L 9,49 8.875,49.375 q -0.125,0.375 -0.5,0.5 L 8,50 8.28125,49.90625 8.5625,49.8125 8.375,49.875 Q 8.1875,49.9375 7.96875,49.96875 L 7.75,50 7.859375,49.984375 7.96875,49.96875 8.109375,49.609375 M 8.90625,49.28125 9,49 9.03125,48.90625 9.0625,48.8125 9,49 q -0.0625,0.1875 -0.125,0.375 l -0.0625,0.1875 0.09375,-0.28125"
           id="path44770" />
        <path
           style="fill:#9d5204;fill-opacity:1"
           d="M 23.125,49.375 23,49 l 0.375,0.125 q 0.375,0.125 0.515625,0.484375 L 24.03125,49.96875 24.140625,49.98438 24.25,50 24.03125,49.96875 Q 23.8125,49.9375 23.625,49.875 L 23.4375,49.8125 23.71875,49.90625 24,50 23.625,49.875 q -0.375,-0.125 -0.5,-0.5 M 22.96875,48.90625 23,49 23.09375,49.28125 23.1875,49.5625 23.125,49.375 Q 23.0625,49.1875 23,49 l -0.0625,-0.1875 0.03125,0.09375"
           id="path44772" />
        <path
           style="fill:#9d5204;fill-opacity:1"
           d="M 24.984375,49.484375 25,49 l 0,0.375 0,0.375 0,-0.25 q 0,-0.25 -0.03125,-0.46875 l -0.03125,-0.21875 0.01563,0.109375 0.01563,0.109375 0.390625,0.109375 Q 25.75,49.25 25.75,49.5 q 0,0.25 -0.375,0.375 L 25,50 25.28125,49.90625 25.5625,49.8125 25.375,49.875 q -0.1875,0.0625 -0.40625,0.09375 L 24.75,50 l 0.109375,-0.01563 0.109375,-0.01563 0.01563,-0.484375"
           id="path44774" />
      </g>
    </g>
  </g>
</svg>
